<?xml version="1.0" encoding="UTF-8" standalone="no"?>
<!-- Created with Inkscape (http://www.inkscape.org/) -->

<svg
   width="210mm"
   height="297mm"
   viewBox="0 0 210 297"
   version="1.1"
   id="svg1"
   xml:space="preserve"
   sodipodi:docname="Dawa-Mashinani-favicon.svg"
   inkscape:version="1.4.3 (0d15f75042, 2025-12-25)"
   xmlns:inkscape="http://www.inkscape.org/namespaces/inkscape"
   xmlns:sodipodi="http://sodipodi.sourceforge.net/DTD/sodipodi-0.dtd"
   xmlns="http://www.w3.org/2000/svg"
   xmlns:svg="http://www.w3.org/2000/svg"><sodipodi:namedview
     id="namedview1"
     pagecolor="#ffffff"
     bordercolor="#000000"
     borderopacity="0.25"
     inkscape:showpageshadow="2"
     inkscape:pageopacity="0.0"
     inkscape:pagecheckerboard="true"
     inkscape:deskcolor="#d1d1d1"
     inkscape:document-units="mm"
     inkscape:zoom="0.41068322"
     inkscape:cx="396.89958"
     inkscape:cy="627.00395"
     inkscape:window-width="1366"
     inkscape:window-height="672"
     inkscape:window-x="0"
     inkscape:window-y="0"
     inkscape:window-maximized="1"
     inkscape:current-layer="layer1" /><defs
     id="defs1" /><g
     inkscape:label="Layer 1"
     inkscape:groupmode="layer"
     id="layer1"><g
       id="g7"><path
         style="fill:#74a68b"
         d="m 106.70121,200.35936 1.26475,-0.0994 1.1165,0.10089 1.1165,0.10089 -2.38125,-0.001 -2.38125,-0.001 z m -0.66245,-6.08468 1.13148,-0.10162 0.98519,0.10337 0.98519,0.10337 -2.11666,-0.002 -2.11667,-0.002 z m -33.013763,-13.16739 -1.971132,-1.98437 h 0.132292 0.132292 l 1.971131,1.98437 1.971131,1.98438 H 75.12842 74.996128 Z m 6.468491,-20.70106 6.204185,-0.0782 0.100454,-1.25202 0.100453,-1.25201 -0.02065,1.32292 -0.02065,1.32291 -6.283993,0.007 -6.283994,0.007 z m 39.039842,-0.015 v -0.21089 l 1.12448,-1.04588 1.12448,-1.04589 -1.04243,1.12095 -1.04244,1.12095 9.11223,0.0733 9.11222,0.0733 -9.19427,0.0626 -9.19427,0.0625 z m -22.489582,-2.30266 1.704505,-1.71979 h 0.132291 0.132292 l -1.704505,1.71979 -1.704505,1.71979 h -0.132292 -0.132291 z m 21.298962,-0.66146 1.83789,-1.85208 h 0.13229 0.13229 l -1.83789,1.85208 -1.83789,1.85209 h -0.13229 -0.13229 z m -25.267713,0.98557 v -0.0728 l 2.050521,-1.97775 2.050521,-1.97775 -1.977753,2.05052 -1.977753,2.05052 h -0.07277 -0.07277 z m 47.743773,-9.58452 1.7e-4,-8.99584 0.0791,4.581 0.0791,4.58101 -0.0793,4.41483 -0.0793,4.41483 z m 10.82703,-0.39688 v -2.77812 l 0.0972,1.38906 0.0972,1.38906 -0.0972,1.38906 -0.0972,1.38907 z m -91.022105,0 v -2.24896 l 0.10128,1.12448 0.10128,1.12448 -0.10128,1.12448 -0.10128,1.12448 z m 68.283455,-10.71562 0.0189,-1.5875 4.43203,-0.01 4.43202,-0.01 -4.35342,0.0824 -4.35342,0.0824 -0.0975,1.51501 -0.0975,1.51502 z m -49.639217,-1.65336 5.110645,-0.078 4.943522,0.0781 4.943523,0.0781 -10.054168,-1.4e-4 -10.054167,-1.4e-4 z"
         id="path13" /><path
         style="fill:#82b14f"
         d="m 145.39243,177.01254 -0.17551,-0.28398 0.2181,0.0727 0.2181,0.0727 0.0661,-0.19844 0.0661,-0.19844 -0.19844,-0.0399 -0.19844,-0.0399 -0.3091,-0.42271 -0.30909,-0.42272 -0.19802,0.19803 -0.19802,0.19802 h 0.30868 0.30868 v 0.32802 0.32803 l -0.66146,-0.71335 -0.66146,-0.71336 v -0.17623 -0.17624 l 0.39687,0.32938 0.39688,0.32937 v -0.23333 -0.23334 l -0.5066,-0.31638 -0.50661,-0.31637 -0.31954,0.38502 -0.31954,0.38503 -0.29834,-0.008 -0.29833,-0.008 0.46859,-0.2728 0.46858,-0.2728 -0.13633,-0.2206 -0.13634,-0.2206 0.41212,-0.15814 0.41213,-0.15815 -0.14424,-0.23338 -0.14423,-0.23338 h 0.64101 0.64102 l 0.1396,0.3638 0.13961,0.3638 -0.16615,0.46302 -0.16614,0.46303 0.20998,-0.18988 0.20998,-0.18987 0.10048,-1.00075 0.10049,-1.00075 -0.26426,0.39687 -0.26425,0.39688 -0.004,-0.51359 -0.004,-0.5136 -0.41057,0.5136 -0.41058,0.51359 0.18097,-0.66146 0.18096,-0.66146 0.22961,-0.0882 0.22961,-0.0882 v -0.37483 -0.37482 h 0.2739 0.27389 l -0.27461,0.51311 -0.27461,0.51311 0.21349,0.13194 0.21348,0.13194 0.29411,-0.77918 0.29411,-0.77919 -0.25131,0.15532 -0.25131,0.15532 0.11917,-0.6165 0.11917,-0.6165 1.12954,-2.38125 1.12953,-2.38125 0.0235,-0.13229 0.0234,-0.13229 0.35875,-1.25677 0.35874,-1.25677 h 0.2418 0.24179 l -0.0626,-0.33073 -0.0626,-0.33073 0.56208,-2.38125 0.56207,-2.38125 0.33453,-2.11667 0.33453,-2.11666 -0.0102,-4.36563 -0.0102,-4.36562 -0.14519,-1.19063 -0.1452,-1.19062 -0.41993,-1.98438 -0.41992,-1.98437 -0.0795,-0.52917 -0.0795,-0.52917 -0.20858,-0.33426 -0.20858,-0.33425 -0.0225,-0.79022 -0.0225,-0.79022 h -0.18994 -0.18993 l -0.35839,-1.25678 -0.3584,-1.25677 0.0594,-0.19843 0.0594,-0.19844 h -0.26458 -0.26458 l -0.004,-0.33073 -0.004,-0.33073 -1.27603,-2.64583 -1.27603,-2.64584 -1.01392,-1.5875 -1.01392,-1.5875 -1.5972,-2.11666 -1.59721,-2.11667 -2.2606,-2.26855 -2.26061,-2.26855 -2.72683,-2.02793 -2.72683,-2.02793 -1.90338,-1.11558 -1.90338,-1.11558 -2.11666,-0.91329 -2.11667,-0.91329 -0.13229,-0.15694 -0.13229,-0.15694 -0.39688,-0.0737 -0.39687,-0.0737 -0.52917,-0.22148 -0.52917,-0.22149 -1.85208,-0.46291 -1.85208,-0.46292 -1.5875,-0.326 -1.5875,-0.32601 -2.24896,-0.3302 -2.24896,-0.33021 -4.23333,0.15257 -4.233337,0.15257 -1.281334,-0.005 -1.281333,-0.005 -0.508446,0.16137 -0.508446,0.16138 0.179537,0.2905 0.179537,0.29049 -0.461918,-0.17725 -0.461918,-0.17726 -0.102348,0 -0.102349,0 0.08062,-0.33073 0.08062,-0.33073 -0.110825,0.19799 -0.110824,0.19798 -0.705708,-0.13734 -0.705707,-0.13733 0.595313,0.31051 0.595312,0.31052 v 0.23094 0.23095 l -0.780611,-0.40367 -0.78061,-0.40367 -0.211577,0.008 -0.211577,0.008 0.463021,0.26969 0.463021,0.26968 v 0.25823 0.25823 l -0.859896,-0.41648 -0.859896,-0.41647 0.458908,0.3697 0.458909,0.36969 -0.154047,0.15405 -0.154046,0.15405 -0.371008,-0.14237 -0.371008,-0.14237 -5.25e-4,0.22674 -5.26e-4,0.22675 -0.85937,0.0423 -0.85937,0.0423 0.715491,-0.25878 0.715491,-0.25877 0.162234,-0.51115 0.162235,-0.51116 0.445191,-0.0139 0.445191,-0.0139 -0.595312,-0.41526 -0.595313,-0.41527 v -0.36461 -0.3646 l -0.330729,-0.004 -0.330729,-0.004 0.396875,-0.25648 0.396875,-0.25648 -0.396875,-0.0227 -0.396875,-0.0227 1.058333,-0.39352 1.058334,-0.393526 2.645833,-0.62231 2.645833,-0.622311 2.407861,-0.320615 2.40787,-0.320614 5.13276,0.130075 5.13276,0.130075 3.30729,0.686792 3.30729,0.686792 2.38125,0.801472 2.38125,0.80148 0.52917,0.25384 0.52917,0.25384 1.45521,0.61482 1.4552,0.61482 1.85209,0.9948 1.85208,0.99481 1.19271,0.65418 1.19272,0.65418 2.01393,1.51858 2.01394,1.51858 2.11087,1.98438 2.11086,1.98437 1.76009,2.15412 1.76009,2.15411 v 0.27123 0.27124 l 0.23038,0.0882 0.23037,0.0882 0.96025,1.50865 0.96025,1.50864 v 0.2584 0.25839 l 0.371,0.371 0.371,0.37101 0.92696,1.84068 0.92696,1.84069 0.66788,1.64367 0.66788,1.64367 h -0.14615 -0.14616 l 0.29469,0.35507 0.29468,0.35507 -0.17409,0.1741 -0.17409,0.17409 h 0.33698 0.33699 l -0.15229,0.39687 -0.1523,0.39688 h 0.24798 0.24797 l -0.15229,0.39687 -0.1523,0.39688 h 0.24287 0.24287 l 0.31955,1.25677 0.31954,1.25677 0.12522,0.52917 0.12521,0.52916 0.52604,2.38125 0.52604,2.38125 0.30173,3.57188 0.30174,3.57187 -0.31998,3.175 -0.31998,3.175 -0.38815,1.98438 -0.38815,1.98437 -0.41554,1.5163 -0.41554,1.5163 -0.27201,-0.16812 -0.27202,-0.16811 0.19246,0.31141 0.19246,0.3114 -0.43743,1.31698 -0.43742,1.31697 h -0.25894 -0.25893 l 0.16472,0.26652 0.16472,0.26652 -1.37746,2.90078 -1.37746,2.90077 -0.26773,-0.16547 -0.26774,-0.16547 0.16545,0.26771 0.16545,0.2677 -0.93436,1.55912 -0.93436,1.55911 -0.43249,0.39687 -0.43249,0.39688 0.32909,-0.43947 0.32908,-0.43946 -0.25915,-0.16016 -0.25915,-0.16017 -0.11433,0.20276 -0.11434,0.20275 0.0499,0.5693 0.0499,0.56931 -0.41688,-0.15313 -0.41689,-0.15313 -0.17298,-0.2583 -0.17297,-0.25829 0.0407,0.70183 0.0407,0.70183 0.19844,1.8e-4 0.19844,1.9e-4 v -0.30868 -0.30868 l 0.1518,0.1518 0.1518,0.1518 -0.39894,0.77146 -0.39894,0.77147 -0.39076,0.3243 -0.39077,0.32431 z m -52.397945,-75.42314 -0.170076,-0.27519 0.749774,0.1643 0.749773,0.16429 -0.369133,-0.25918 -0.369133,-0.25919 0.369133,-0.12051 0.369133,-0.12051 -0.570733,0.0926 -0.570732,0.0926 -0.464859,0.17838 -0.464858,0.17839 0.180011,-0.29127 0.180011,-0.29126 -0.245673,-0.15184 -0.245673,-0.15183 0.05036,0.33199 0.05036,0.33199 0.206613,0.33073 0.206612,0.33073 h 0.264583 0.264584 z m 30.212165,46.37883 -0.12042,-0.19844 0.0786,-0.70126 0.0786,-0.70127 0.17631,-0.5555 0.17631,-0.55551 h -0.15667 -0.15667 l -0.3142,0.72761 -0.31421,0.7276 -0.0951,-1.04319 -0.0951,-1.04318 -0.24152,0.38173 -0.24152,0.38172 -0.008,-0.66146 -0.008,-0.66145 -0.23095,0.36462 -0.23095,0.36463 -0.28261,-0.17466 -0.28261,-0.17466 0.12242,-0.32226 0.12241,-0.32226 -1.16654,-0.7356 -1.16655,-0.7356 -0.32517,-0.39181 -0.32518,-0.39181 -0.3219,0.44023 -0.3219,0.44023 -0.32276,-0.19948 -0.32276,-0.19947 0.14202,-0.37012 0.14203,-0.37011 -0.32243,-0.004 -0.32242,-0.004 0.35897,-0.22746 0.35898,-0.22746 -0.26511,-0.16384 -0.2651,-0.16385 -0.14507,0.37805 -0.14507,0.37805 -0.52658,0.28181 -0.52658,0.28182 0.13091,-0.7219 0.1309,-0.72189 0.31458,-0.20002 0.31458,-0.20002 -0.23083,-0.004 -0.23084,-0.004 0.32938,-0.39688 0.32938,-0.39687 h -0.28383 -0.28384 l -0.26968,0.46302 -0.26969,0.46302 -0.008,-0.21583 -0.008,-0.21584 0.2891,-0.54017 0.28909,-0.54018 -0.24739,-0.24739 -0.24739,-0.2474 -0.33869,0.40809 -0.33868,0.40809 h 0.20333 0.20332 l -0.68377,0.63369 -0.68376,0.63369 0.1132,0.11321 0.11321,0.1132 -0.79099,0.75781 -0.791,0.75782 v -0.30094 -0.30093 l 0.46303,-0.26969 0.46302,-0.26968 -0.23945,-0.008 -0.23944,-0.008 0.49037,-0.54186 0.49038,-0.54186 0.063,-0.45033 0.063,-0.45033 -0.34314,0.46302 -0.34315,0.46302 h -0.16927 -0.16927 v -0.39687 -0.39688 h -0.51134 -0.51133 l -0.15521,-0.48901 -0.15521,-0.48902 -0.65637,-0.29906 -0.65637,-0.29906 v -0.27026 -0.27025 h -0.48446 -0.48446 l -0.34917,-0.65243 -0.34916,-0.65243 -0.29086,0.17405 -0.29085,0.17405 0.36071,-0.44475 0.36071,-0.44475 0.27548,0.17026 0.27549,0.17026 -0.19673,-0.31832 -0.19673,-0.31831 -0.30717,0.24137 -0.30718,0.24137 -0.46302,-0.008 -0.46302,-0.008 v -0.16937 -0.16937 l 1.91823,-0.91101 1.91823,-0.91101 0.35206,-0.33316 0.35206,-0.33316 0.24325,0.15033 0.24325,0.15034 v -0.2802 -0.28019 h 0.39688 0.39687 v -0.26459 -0.26458 h 0.28469 0.28468 l 1.50125,-1.16035 1.50126,-1.16036 1.74685,-1.81621 1.74686,-1.81621 0.56447,-1.10652 0.56447,-1.10653 0.24583,-0.15194 0.24584,-0.15193 0.48325,1.25846 0.48324,1.25846 0.0354,0.19844 0.0354,0.19844 0.0661,0.13229 0.0661,0.13229 0.0559,0.19844 0.0559,0.19844 0.19597,0.44236 0.19596,0.44236 0.0917,0.48368 0.0917,0.48368 0.0516,0.13229 0.0516,0.13229 -0.0406,0.22629 -0.0406,0.22629 0.2914,0.35111 0.2914,0.35112 0.14712,1.27468 0.14711,1.27468 0.0701,0.79375 0.0701,0.79375 0.1797,0.43505 0.1797,0.43506 -0.13835,2.87224 -0.13835,2.87223 -0.11934,1.05834 -0.11934,1.05833 -0.15082,1.15635 -0.15082,1.15635 -0.30012,0.36164 -0.30013,0.36163 0.15033,0.39177 0.15034,0.39177 -0.25734,0.15905 -0.25735,0.15905 0.14093,0.22801 0.14092,0.22802 -0.27321,0.16886 -0.27322,0.16886 0.15222,0.2463 0.15223,0.2463 h -0.1323 -0.13229 z m 16.18128,-6.97999 -0.0848,-0.8793 -0.61758,-0.30612 -0.61759,-0.30612 -0.29522,-0.29522 -0.29523,-0.29523 h -0.48455 -0.48456 l -0.15229,-0.39687 -0.1523,-0.39688 h -0.35926 -0.35926 l -0.27177,-0.50782 -0.27178,-0.50782 0.32861,-0.1396 0.32862,-0.1396 -1.19063,0.13963 -1.19062,0.13962 0.36066,-0.25393 0.36067,-0.25392 -0.36067,-0.14343 -0.36066,-0.14344 2.07584,-0.0209 2.07584,-0.0209 0.74872,0.44228 0.74872,0.44228 0.45927,1.01848 0.45928,1.01848 -0.0466,1.23313 -0.0466,1.23312 -0.10968,0.10967 -0.10967,0.10968 z m -22.6622,-22.91792 -0.0445,-1.38907 0.0454,-0.0661 0.0454,-0.0662 -0.70689,-1.26616 -0.70689,-1.26616 v -0.1229 -0.1229 l 0.4872,0.46302 0.48719,0.46302 -0.10593,0.19844 -0.10594,0.19843 h 0.26399 0.26398 l 0.16853,1.12448 0.16852,1.12448 -0.10783,1.05833 -0.10784,1.05834 z m -2.52505,-4.22241 -0.18751,-0.18751 -1.24565,-0.18207 -1.24565,-0.18206 1.38907,0.02 1.38906,0.02 v 0.1979 0.1979 l 0.46302,0.121 0.46302,0.121 -0.41892,0.0307 -0.41893,0.0307 z M 85.195831,106.9049 v -0.28916 l 0.653161,-0.2976 0.653162,-0.2976 -0.167398,-0.27086 -0.167399,-0.27085 0.440278,0.16895 0.440279,0.16895 v -0.23423 -0.23423 l -0.330729,-0.1301 -0.330729,-0.1301 0.992187,0.14267 0.992188,0.14267 1.86e-4,-0.23306 1.87e-4,-0.23306 0.72227,-0.0419 0.722269,-0.0419 -0.65631,0.3633 -0.656311,0.36331 -0.349628,0.009 -0.349628,0.009 -0.399307,0.39931 -0.399306,0.39931 -0.243253,-0.15034 -0.243253,-0.15034 v 0.29581 0.29582 l -0.243252,-0.15034 -0.243253,-0.15034 -0.418206,0.4182 -0.418205,0.41821 z m 2.455127,-2.67995 0.470753,-0.27865 -0.561896,-0.45499 -0.561897,-0.455 h 0.541566 0.541565 l -0.12027,0.12027 -0.12027,0.12027 0.43846,0.48449 0.438459,0.4845 -0.107153,0.0197 -0.107153,0.0197 -0.661458,0.10922 -0.661458,0.10922 z"
         id="path12" /><path
         style="fill:#72a84b"
         d="m 120.29108,192.81983 0.1606,-0.25986 -0.54003,0.1714 -0.54004,0.17141 -0.12916,-0.20921 -0.12917,-0.2092 0.69409,-0.0418 0.69409,-0.0418 0.0969,-0.29061 0.0969,-0.29061 0.2507,0.15494 0.25069,0.15493 0.86073,-0.50784 0.86072,-0.50784 0.45349,0.0666 0.45348,0.0666 v -0.19217 -0.19217 l 0.90537,-0.43174 0.90538,-0.43175 0.28756,0.3465 0.28757,0.34649 -0.72992,-0.11676 -0.72992,-0.11676 0.39688,0.31026 0.39687,0.31025 -0.44613,-0.14246 -0.44614,-0.14247 -0.69977,0.55044 -0.69978,0.55045 0.12018,0.45956 0.12018,0.45957 -0.537,-0.14043 -0.53699,-0.14043 0.18928,0.30626 0.18928,0.30626 h -0.30851 -0.30851 l 0.15894,-0.41417 0.15893,-0.41418 -0.56063,0.17794 -0.56064,0.17794 0.17917,-0.2899 0.17917,-0.2899 -0.46339,0.17782 -0.46338,0.17782 0.31735,0.10578 0.31735,0.10578 v 0.20947 0.20946 h -0.65663 -0.65664 z m 7.96666,-2.23744 -0.46204,-0.12082 0.28812,-0.53835 0.28812,-0.53836 -0.26737,-0.26738 -0.26738,-0.26737 -0.33346,0.53396 -0.33346,0.53396 -0.41587,-0.15543 -0.41586,-0.15543 0.39688,0.48892 0.39687,0.48892 -0.56435,-0.3514 -0.56435,-0.3514 0.29976,-0.32479 0.29977,-0.3248 0.16846,0.10161 0.16846,0.10161 0.32696,-0.39396 0.32696,-0.39396 h 0.36448 0.36448 v -0.26459 -0.26458 h 0.37482 0.37483 l 0.0963,-0.28896 0.0963,-0.28896 0.69409,-0.0418 0.69409,-0.0418 -0.0979,-0.15857 -0.0979,-0.15857 0.60198,-0.52342 0.60199,-0.52341 1.43951,-1.0715 1.43951,-1.0715 0.63378,-0.68576 0.63377,-0.68575 0.23268,0.1438 0.23268,0.14381 -0.0727,-0.23609 -0.0727,-0.23609 1.16692,-1.22817 1.16692,-1.22817 0.26303,0.16255 0.26302,0.16256 -0.17375,-0.28114 -0.17376,-0.28114 1.26748,-1.1488 1.26748,-1.1488 -0.53929,0.39687 -0.5393,0.39688 0.5115,-0.66146 0.5115,-0.66146 0.81142,-0.76249 0.81142,-0.76248 -0.39688,0.19013 -0.39687,0.19013 0.66146,-0.57508 0.66145,-0.57509 -0.37161,0.19613 -0.3716,0.19613 0.17422,-0.28189 0.17422,-0.2819 0.32968,0.0688 0.32968,0.0688 0.46302,0.20057 0.46302,0.20056 v 0.26867 0.26867 l -0.39688,-0.32937 -0.39687,-0.32938 v 0.17624 0.17623 l 0.66146,0.71336 0.66146,0.71335 v -0.32803 -0.32802 h -0.30868 -0.30868 l 0.19802,-0.19802 0.19802,-0.19803 0.31005,0.39646 0.31006,0.39646 0.36223,0.077 0.36223,0.077 -0.18043,-0.47384 -0.18042,-0.47384 0.32196,0.31952 0.32196,0.31951 -0.30399,0.36629 -0.30399,0.36629 0.13593,0.13593 0.13593,0.13593 -2.93882,3.07747 -2.93881,3.07746 -2.02806,1.6334 -2.02806,1.6334 -1.7707,1.13663 -1.77071,1.13664 -1.62885,0.82224 -1.62884,0.82223 0.19523,-0.3159 0.19524,-0.3159 -0.36756,0.13355 -0.36756,0.13354 0.0661,0.29766 0.0661,0.29765 -0.19844,-0.0307 -0.19844,-0.0307 z m 18.44484,-15.11263 -0.25571,-0.1833 -0.0494,-0.66146 -0.0494,-0.66146 0.13757,0.33073 0.13757,0.33073 h 0.37483 0.37483 l 0.0331,-0.26458 0.0331,-0.26459 0.0331,-0.26458 0.0331,-0.26458 0.25878,0.0661 0.25877,0.0661 0.0509,0.34709 0.051,0.3471 -0.37435,0.14365 -0.37434,0.14365 0.12785,0.20688 0.12786,0.20688 -0.33669,0.27943 -0.33669,0.27942 z m -1.88211,-0.97705 0.15912,-0.52917 -0.22897,-0.36462 -0.22896,-0.36463 -0.27588,0.1705 -0.27588,0.17051 -0.19146,-0.30978 -0.19145,-0.30978 0.2892,0.17874 0.2892,0.17873 0.2728,-0.46858 0.2728,-0.46859 0.0121,0.52917 0.0121,0.52917 0.26425,-0.39688 0.26426,-0.39687 -0.10049,1.00075 -0.10048,1.00075 -0.20069,0.18987 -0.20069,0.18988 z m -27.01177,-18.07572 0.0407,-0.54075 0.19138,0.11828 0.19137,0.11828 0.1476,-0.23882 0.1476,-0.23882 -0.54991,-0.1438 -0.54992,-0.14381 0.17332,-0.54607 0.17331,-0.54607 -0.42997,0.165 -0.42997,0.165 -0.71181,-0.66563 -0.71181,-0.66562 -0.79375,-0.40194 -0.79375,-0.40194 -0.64143,-0.6866 -0.64143,-0.6866 h -0.35076 -0.35075 v -0.52916 -0.52917 h -0.22049 -0.22048 l -0.18178,0.18178 -0.18178,0.18178 -0.48673,0.0359 -0.48673,0.0359 0.13633,-0.52135 0.13634,-0.52134 0.35578,0.48657 0.35579,0.48656 v -0.22817 -0.22817 l -0.41611,-0.4598 -0.41611,-0.4598 0.41423,-0.80103 0.41422,-0.80103 0.26909,-0.1663 0.26908,-0.1663 1.07963,-1.96714 1.07963,-1.96714 h 0.28477 0.28476 l -0.17227,-0.17228 -0.17228,-0.17228 0.45891,-0.37651 0.45891,-0.37651 -0.33073,0.16753 -0.33073,0.16752 v -0.28019 -0.2802 h 0.26458 0.26459 l -0.0313,-0.19844 -0.0313,-0.19844 0.0313,-0.42186 0.0313,-0.42187 0.60373,-0.70261 0.60374,-0.70261 h 0.22241 0.22241 l -0.32938,0.39687 -0.32938,0.39688 0.23084,0.004 0.23083,0.004 -0.31458,0.20002 -0.31458,0.20002 -0.1309,0.72189 -0.13091,0.7219 0.52658,-0.28182 0.52658,-0.28181 0.14507,-0.37805 0.14507,-0.37805 0.2651,0.16385 0.26511,0.16384 -0.35898,0.22746 -0.35897,0.22746 0.32242,0.004 0.32243,0.004 -0.14203,0.37011 -0.14202,0.37012 0.32276,0.19947 0.32276,0.19948 0.3219,-0.44023 0.3219,-0.44023 0.32518,0.39181 0.32517,0.39181 1.16655,0.7356 1.16654,0.7356 -0.12241,0.32226 -0.12242,0.32226 0.28261,0.17466 0.28261,0.17466 0.23095,-0.36463 0.23095,-0.36462 0.008,0.66145 0.008,0.66146 0.24152,-0.38172 0.24152,-0.38173 0.0951,1.04318 0.0951,1.04319 0.31421,-0.7276 0.3142,-0.72761 h 0.15667 0.15667 l -0.17198,0.54187 -0.17198,0.54186 0.35259,0.45032 0.35259,0.45033 -0.39687,-0.30806 -0.39688,-0.30807 -0.038,0.63704 -0.038,0.63704 0.22588,-0.1396 0.22588,-0.1396 -0.27987,0.80281 -0.27986,0.80281 h -0.23039 -0.2304 l 0.16895,0.44028 0.16895,0.44028 -0.35043,-0.21658 -0.35042,-0.21657 0.19618,0.31742 0.19618,0.31743 -1.12653,1.96893 -1.12654,1.96892 -0.47047,0.14932 -0.47048,0.14933 0.16473,0.42926 0.16472,0.42927 -0.43433,-0.16667 -0.43434,-0.16667 -0.18164,0.2939 -0.18165,0.29391 0.37161,-0.21583 0.37161,-0.21584 -0.66146,0.77027 -0.66146,0.77027 -0.052,0.0961 -0.052,0.096 z m 21.26544,-1.96578 -0.20011,-1.25608 -0.49514,-0.26499 -0.49514,-0.26499 -0.17578,-0.55383 -0.17577,-0.55384 -1.09892,-0.49897 -1.09891,-0.49897 0.33683,-0.006 0.33683,-0.006 -0.41854,-0.63877 -0.41854,-0.63877 -1.30735,-0.17981 -1.30735,-0.17981 v -0.23975 -0.23976 h -0.39688 -0.39687 v -0.40255 -0.40254 l -0.66146,-0.30138 -0.66146,-0.30138 v -0.22212 -0.22211 h -0.25628 -0.25628 l 0.1523,0.39687 0.15229,0.39688 h -0.27506 -0.27506 l -0.19809,-0.59531 -0.19809,-0.59532 -0.0182,-0.52443 -0.0182,-0.52444 -0.50086,-0.0976 -0.50086,-0.0976 0.14529,0.55559 0.14529,0.55559 -0.24406,0.15084 -0.24406,0.15084 0.17749,0.28718 0.17749,0.28718 -0.31832,-0.19672 -0.31831,-0.19673 0.30983,-0.37332 0.30983,-0.37332 h -0.40825 -0.40825 l -0.18207,0.82897 -0.18208,0.82898 -0.22185,-0.35897 -0.22186,-0.35897 0.28917,-0.17872 0.28917,-0.17872 -0.15262,-0.39771 -0.15261,-0.39771 0.17639,-0.17639 0.17639,-0.17639 0.0445,-0.70937 0.0445,-0.70938 0.29006,-2.24201 0.29005,-2.24202 v -1.5283 -1.52829 h 2.4919 2.49191 l 0.4407,0.16911 0.44069,0.16911 -0.35291,0.24914 -0.35291,0.24913 1.19062,-0.13962 1.19063,-0.13963 -0.32862,0.1396 -0.32861,0.1396 0.27178,0.50782 0.27177,0.50782 h 0.35926 0.35926 l 0.1523,0.39688 0.15229,0.39687 h 0.48456 0.48455 l 0.29523,0.29523 0.29522,0.29522 0.61409,0.30616 0.61408,0.30615 0.18669,1.05227 0.18669,1.05226 -0.0161,5.95313 -0.0161,5.95312 -0.18157,0.79375 -0.18157,0.79375 z M 104.775,147.69042 v -0.21167 l 0.3175,-0.3175 0.3175,-0.3175 h -0.56647 -0.56647 l -0.15175,-0.24553 -0.15175,-0.24554 0.54229,-0.17211 0.54228,-0.17211 -0.67325,-0.52958 -0.67326,-0.52958 0.13913,-0.22512 0.13913,-0.22511 -0.2689,-0.16619 -0.2689,-0.16619 v 0.54478 0.54478 h -0.26458 -0.26459 v -0.21987 -0.21988 l -0.7276,-0.37543 -0.7276,-0.37544 -0.33073,-0.31183 -0.33073,-0.31183 v -0.23033 -0.23033 l -0.878683,-0.31774 -0.878681,-0.31773 h -0.459851 -0.45985 l 0.188786,-0.30547 0.188787,-0.30546 -0.281587,0.17403 -0.281587,0.17403 -0.419232,-0.16088 -0.419232,-0.16087 0.186902,-0.30301 0.186903,-0.303 -1.137612,0.92604 -1.137611,0.92604 -0.571893,0.39688 -0.571892,0.39687 0.983096,-0.99218 0.983096,-0.99219 h 0.169178 0.169178 l 0.520303,-0.66146 0.520303,-0.66146 h 0.355623 0.355623 l 0.08819,-0.21384 0.08819,-0.21384 1.238296,-0.84449 1.238298,-0.84449 h 0.16148 0.16148 l 0.75788,-0.56033 0.75788,-0.56033 0.33062,0.20433 0.33062,0.20434 -0.18879,-0.30547 -0.18879,-0.30546 0.34635,-0.0403 0.34634,-0.0403 0.34181,-0.0282 0.34181,-0.0282 0.18736,-0.28881 0.18736,-0.2888 0.62724,-0.33059 0.62724,-0.33059 -0.20689,0.35712 -0.20688,0.35713 0.6576,-0.59773 0.65761,-0.59773 0.17881,0.1788 0.17881,0.17881 v -0.29349 -0.29348 l 0.57571,0.11087 0.5757,0.11087 0.32678,-0.2712 0.32678,-0.27121 0.19673,0.31831 0.19673,0.31832 -0.27549,-0.17026 -0.27548,-0.17026 -0.36071,0.44475 -0.36071,0.44475 0.29085,-0.17405 0.29086,-0.17405 0.34916,0.65243 0.34917,0.65243 h 0.48446 0.48446 v 0.27025 0.27026 l 0.65637,0.29906 0.65637,0.29906 0.15521,0.48902 0.15521,0.48901 h 0.51133 0.51134 v 0.39688 0.39687 h 0.16927 0.16927 l 0.30698,-0.41982 0.30698,-0.41982 v 0.66731 0.66732 l -0.18169,-0.11229 -0.18168,-0.11229 -0.36071,0.44475 -0.36071,0.44475 0.39158,-0.2363 0.39157,-0.2363 -1.31762,1.36199 -1.31761,1.362 -1.97697,1.60164 -1.97697,1.60164 h -0.21701 -0.21701 l -0.40467,0.33073 -0.40468,0.33073 -0.5102,0.46302 -0.5102,0.46302 z m 7.50912,-19.5025 0.56067,-0.8611 0.33073,0.26586 0.33073,0.26587 0.0313,-0.23084 0.0313,-0.23083 -0.0282,-0.18892 -0.0281,-0.18891 0.3937,0.15107 0.3937,0.15108 v -0.29289 -0.29289 h -0.41249 -0.41249 l 0.17777,-0.28764 0.17777,-0.28764 0.27408,0.27408 0.27407,0.27408 0.7544,-0.39011 0.75439,-0.39011 v -0.16959 -0.1696 l -0.17409,0.17409 -0.1741,0.1741 -0.36113,-0.29971 -0.36113,-0.29971 0.18167,0.47342 0.18167,0.47342 -0.7031,-0.1344 -0.7031,-0.13441 -0.29866,0.35987 -0.29866,0.35986 h -0.38288 -0.38288 l 0.0855,-0.59531 0.0855,-0.59532 -0.44375,-0.49116 -0.44376,-0.49116 -0.25486,0.15752 -0.25487,0.15752 -0.30862,-0.37186 -0.30861,-0.37185 0.47707,-0.11979 0.47707,-0.11979 -0.85989,-0.19997 -0.8599,-0.19998 v -0.23151 -0.23151 h -0.39687 -0.39688 v -0.3691 -0.36911 l -0.65689,-0.62308 -0.65688,-0.62308 -0.005,-0.3129 -0.005,-0.3129 -0.50549,-0.16044 -0.5055,-0.16044 -0.42664,-0.65114 -0.42665,-0.65114 h -0.26341 -0.26341 l -1.51643,-1.19046 -1.51642,-1.19046 -0.31577,-1.6e-4 -0.31578,-1.7e-4 -0.4725,-0.79989 -0.47251,-0.79989 -0.931513,-0.23714 -0.931514,-0.23714 -1.124479,-0.17685 -1.12448,-0.17685 v -0.22293 -0.22292 l -0.595312,-0.11388 -0.595313,-0.11387 9.315031,0.007 9.31503,0.007 -0.11924,0.19293 -0.11924,0.19294 0.417,0.16001 0.41699,0.16002 0.30909,-0.0186 0.30909,-0.0186 -0.52917,-0.22739 -0.52916,-0.22739 0.43075,-0.0186 0.43074,-0.0186 0.4414,0.59532 0.44141,0.59531 -0.18543,-0.37161 -0.18543,-0.37161 0.29391,0.18164 0.29391,0.18165 -0.15034,0.39177 -0.15033,0.39177 0.30417,0.36651 0.30418,0.36651 0.12909,0.62231 0.1291,0.62231 0.16487,3.99299 0.16487,3.993 -0.73801,0.82829 -0.73801,0.82829 -0.18754,-0.11591 -0.18754,-0.11591 -0.55069,0.58629 -0.55069,0.58629 -0.40405,0.33073 -0.40405,0.33073 h -0.42366 -0.42365 l 0.14493,0.2345 0.14493,0.2345 -0.49155,0.12855 -0.49155,0.12854 z m -19.051817,-8.99313 0.0011,-2.91041 0.09575,1.53101 0.09575,1.53102 -0.09684,1.3794 -0.09684,1.3794 z m -23.684405,0.0382 1.095849,-1.11659 v -0.18842 -0.18842 l 0.523165,-0.52317 0.523166,-0.52317 -0.159764,-0.41633 -0.159764,-0.41634 0.57012,-0.60687 0.570119,-0.60686 -0.154977,-0.40387 -0.154977,-0.40386 0.449505,-0.17249 0.449504,-0.17249 -0.356635,0.46908 -0.356635,0.46907 0.98067,-0.91179 0.980669,-0.9118 v -0.1214 -0.12139 l -0.46302,0.39049 -0.463021,0.39049 -0.79375,0.0301 -0.79375,0.0301 0.529166,-0.22865 0.529167,-0.22864 -0.252134,-0.0186 -0.252134,-0.0186 1.022734,-1.04737 1.022735,-1.04738 0.208312,0.12875 0.208312,0.12874 0.291133,-0.54399 0.291134,-0.54398 0.251308,0.15531 0.251308,0.15532 v -0.41719 -0.4172 l 2.686868,-1.97967 2.686868,-1.97967 h 0.35584 0.355841 l 2.69e-4,-0.19844 2.69e-4,-0.19844 1.284649,-0.7215 1.284648,-0.72151 0.170291,0.17029 0.170291,0.17029 v -0.30037 -0.30038 l 0.440279,0.16895 0.440278,0.16895 -0.189437,-0.30651 -0.189437,-0.30652 0.454021,0.17423 0.45402,0.17422 -0.174176,-0.28182 -0.174175,-0.28182 0.409097,-0.15699 0.409097,-0.15699 -0.165654,0.3277 -0.165654,0.3277 0.376511,-0.45891 0.376511,-0.45891 0.172276,0.17228 0.172277,0.17228 v -0.3243 -0.32429 l 0.246301,0.15222 0.246301,0.15222 0.168856,-0.27321 0.168856,-0.27322 0.246301,0.15222 0.246301,0.15223 v -0.2719 -0.27189 l 0.440279,0.16895 0.440278,0.16895 -0.19131,-0.30955 -0.19131,-0.30954 h 0.258559 0.258559 l 0.461918,-0.17726 0.461918,-0.17725 -0.195316,0.37569 -0.195316,0.37569 0.365579,-0.44396 0.365579,-0.44395 0.345439,0.21349 0.345438,0.21349 -0.360668,0.14343 -0.360667,0.14343 0.330729,0.0209 0.330729,0.0209 v 0.3646 0.36461 l 0.595313,0.41527 0.595312,0.41526 -0.445191,0.0139 -0.445191,0.0139 -0.167756,0.52855 -0.167756,0.52855 -0.668965,0.1679 -0.668965,0.1679 0.355871,0.22554 0.35587,0.22554 -0.529167,0.046 -0.529167,0.046 -0.478391,-0.0415 -0.478391,-0.0415 0.179591,0.29058 0.179591,0.29058 -0.561096,-0.30029 -0.561095,-0.30028 v 0.30851 0.30851 l -0.992188,-0.14267 -0.992187,-0.14267 0.330729,0.1301 0.330729,0.1301 v 0.23423 0.23423 l -0.463021,-0.17353 -0.463021,-0.17352 0.368153,0.45247 0.368153,0.45247 -0.477702,-0.18331 -0.477703,-0.18332 0.216576,0.35043 0.216576,0.35043 -0.325728,-0.20131 -0.325729,-0.20131 -0.524675,0.56317 -0.524675,0.56317 -0.226212,-0.13981 -0.226213,-0.1398 -0.08874,0.20389 -0.08874,0.20389 -1.801763,1.12101 -1.801764,1.12102 0.171077,-0.33107 0.171078,-0.33107 -0.48598,0.55811 -0.485981,0.55811 -1.579273,1.14667 -1.579272,1.14667 -1.527283,1.40407 -1.527283,1.40408 h -0.414789 -0.414788 l 0.157557,0.25493 0.157557,0.25493 -1.067984,1.06799 -1.067984,1.06798 v 0.14937 0.14938 l -0.787627,0.66274 -0.787628,0.66275 0.06002,0.27721 0.06002,0.27721 -0.500537,0.0834 -0.500537,0.0834 z m 4.063885,-7.11583 0.189912,-0.46302 h 0.288724 0.288724 l -0.19057,0.33073 -0.190571,0.33073 0.655029,-0.59531 0.65503,-0.59532 h 0.366593 0.366593 l -0.333978,-0.33073 -0.333978,-0.33073 -0.279017,0.49477 -0.279018,0.49476 -0.182606,-0.29546 -0.182607,-0.29546 -0.91096,0.94465 -0.910961,0.94465 0.396875,-0.0856 0.396875,-0.0856 z m 14.998492,-7.85169 0.107153,-0.0197 -0.438459,-0.4845 -0.43846,-0.48449 0.12027,-0.12027 0.12027,-0.12027 h -0.541565 -0.541566 l 0.561897,0.455 0.561896,0.45499 -0.470753,0.27865 -0.470752,0.27865 0.661458,-0.10922 0.661458,-0.10922 z m 7.698056,-1.34258 0.396875,-0.25648 1.058333,0.0273 1.058334,0.0272 -0.79375,0.20198 -0.79375,0.20197 -0.661459,0.0273 -0.661458,0.0272 z m -3.96875,-1.45521 -0.329377,-0.39687 h 0.197085 0.197085 l -0.363126,-0.46302 -0.363126,-0.46303 0.460108,0.36071 0.460108,0.36071 -0.172782,0.27957 -0.172782,0.27957 0.464858,-0.17839 0.464859,-0.17838 0.570732,-0.0926 0.570733,-0.0926 -0.369133,0.12051 -0.369133,0.12051 0.369133,0.25919 0.369133,0.25918 -0.749773,-0.16429 -0.749774,-0.1643 0.170076,0.27519 0.170076,0.27519 h -0.247802 -0.247801 z m 13.163019,-3.503187 1.65365,-0.09394 1.65364,0.09394 1.65365,0.09394 h -3.30729 -3.30729 z"
         id="path11" /><path
         style="fill:#529446"
         d="m 106.90742,194.6365 0.14804,-0.15516 2.23321,-0.12174 2.2332,-0.12174 2.18953,-0.42519 2.18952,-0.42519 0.32402,0.18618 0.32402,0.18618 -0.20322,-0.22359 -0.20322,-0.22359 1.76075,-0.4581 1.76076,-0.4581 0.35917,0.13783 0.35918,0.13783 -0.12595,0.20378 -0.12595,0.20379 h 0.65664 0.65663 v -0.23151 -0.23151 l -0.33073,-0.004 -0.33073,-0.004 0.39688,-0.25648 0.39687,-0.25648 -0.39687,-0.0121 -0.39688,-0.0121 0.48852,-0.28396 0.48852,-0.28395 0.30523,0.30767 0.30523,0.30768 -0.41892,-0.15935 -0.41893,-0.15935 v 0.36416 0.36416 h 0.74966 0.74965 l 0.17639,0.17639 0.17639,0.17639 -0.17,0.16999 -0.16999,0.17 -0.45281,-0.36843 -0.45281,-0.36844 0.16233,0.43385 0.16233,0.43385 -0.77135,0.15427 -0.77136,0.15427 -0.44317,-0.17006 -0.44318,-0.17006 0.17403,0.28157 0.17402,0.28157 -1.65198,0.32169 -1.65197,0.32168 -5.15937,0.13233 -5.15938,0.13233 z m 16.47971,-2.16354 -0.15667,-0.40828 0.16268,-0.16268 0.16268,-0.16269 -0.32843,-0.40586 -0.32843,-0.40586 0.30813,0.18473 0.30813,0.18473 0.11153,-0.20009 0.11152,-0.20008 -0.0854,0.34329 -0.0854,0.34329 0.55606,-0.38948 0.55606,-0.38948 0.43264,0.14793 0.43265,0.14793 -0.52917,-0.42395 -0.52916,-0.42394 0.90819,0.25144 0.9082,0.25144 -0.31289,-0.31288 -0.31288,-0.31289 v -0.24209 -0.2421 l 0.72761,0.46826 0.7276,0.46827 -0.52917,-0.60863 -0.52916,-0.60862 0.54325,0.28453 0.54325,0.28453 0.33837,-0.54181 0.33836,-0.54181 0.26738,0.26737 0.26737,0.26738 -0.28278,0.52836 -0.28277,0.52837 0.58899,0.17915 0.58899,0.17916 -1.29189,0.62202 -1.29189,0.62202 -0.40516,-0.15548 -0.40515,-0.15547 0.20224,0.32724 0.20225,0.32724 -0.35728,-0.0601 -0.35728,-0.0601 -0.74483,0.30702 -0.74483,0.30701 h -0.12337 -0.12337 z m 18.42954,-10.8365 1.7045,-1.71979 h 0.13229 0.13229 l -1.7045,1.71979 -1.70451,1.71979 h -0.13229 -0.13229 z m -33.15999,-19.25665 -0.42965,-0.90542 -1.05888,-0.70073 -1.05889,-0.70074 h -0.53484 -0.53484 v -0.24676 -0.24675 l -0.49774,-0.15798 -0.49774,-0.15797 -0.55578,-0.48203 -0.55578,-0.48203 0.19362,-0.20444 0.19363,-0.20445 -0.62845,0.19351 -0.62844,0.19351 0.16707,-0.27033 0.16707,-0.27034 -0.28248,-0.0942 -0.28249,-0.0942 3.60994,-3.69875 3.60993,-3.69875 0.78466,-1.12448 0.78465,-1.12448 h 0.12889 0.12889 l -0.29498,0.55118 -0.29498,0.55118 0.41796,0.46184 0.41797,0.46185 v 0.22817 0.22817 l -0.35579,-0.48656 -0.35578,-0.48657 -0.13634,0.52134 -0.13633,0.52135 0.48673,-0.0359 0.48673,-0.0359 0.18178,-0.18178 0.18178,-0.18178 h 0.22048 0.22049 v 0.52917 0.52916 h 0.35075 0.35076 l 0.64143,0.6866 0.64143,0.6866 0.79375,0.40194 0.79375,0.40194 0.71181,0.66562 0.71181,0.66563 0.42997,-0.165 0.42997,-0.165 -0.16783,0.52881 -0.16784,0.5288 0.41849,0.16059 0.41849,0.16059 0.36995,-0.30703 0.36995,-0.30703 0.14769,0.23897 0.14769,0.23897 -0.69597,0.63377 -0.69596,0.63378 0.17927,-0.31245 0.17927,-0.31245 -0.27545,-0.17024 -0.27546,-0.17024 0.0379,0.21811 0.0379,0.2181 -0.0313,0.46302 -0.0313,0.46302 h -0.41249 -0.41249 l 0.14902,0.24112 0.14902,0.24112 -1.25788,1.11251 -1.25789,1.11251 -1.53529,1.04695 -1.5353,1.04694 -0.91083,0.38057 -0.91084,0.38058 -0.17012,-0.0256 -0.17012,-0.0256 -0.18902,0.30584 -0.18902,0.30584 z m 11.44892,-3.53122 1.355,-1.48258 1.19121,-1.66935 1.19122,-1.66934 1.2831,-2.73189 1.28309,-2.73189 0.19186,-0.89512 0.19185,-0.89512 0.20707,0.33503 0.20706,0.33504 0.18208,-0.82898 0.18207,-0.82897 h 0.40825 0.40825 l -0.30983,0.37332 -0.30983,0.37332 0.31831,0.19673 0.31832,0.19672 -0.17749,-0.28718 -0.17749,-0.28718 0.24406,-0.15084 0.24406,-0.15084 -0.14529,-0.55559 -0.14529,-0.55559 0.50086,0.0976 0.50086,0.0976 0.0182,0.52444 0.0182,0.52443 0.19809,0.59532 0.19809,0.59531 h 0.27506 0.27506 l -0.15229,-0.39688 -0.1523,-0.39687 h 0.25628 0.25628 v 0.22211 0.22212 l 0.66146,0.30138 0.66146,0.30138 v 0.40254 0.40255 h 0.39687 0.39688 v 0.23976 0.23975 l 1.30735,0.17981 1.30735,0.17981 0.41854,0.63877 0.41854,0.63877 -0.33683,0.006 -0.33683,0.006 1.09891,0.49897 1.09892,0.49897 0.17577,0.55384 0.17578,0.55383 0.49514,0.26499 0.49514,0.26499 0.20011,1.25608 0.20011,1.25608 0.18458,-0.79375 0.18459,-0.79375 -0.005,1.91823 -0.005,1.91823 h -0.2228 -0.2228 l 0.13179,0.34343 0.13178,0.34343 -0.71192,0.64876 -0.71192,0.64876 0.19458,-0.39688 0.19457,-0.39687 -0.42779,0.52916 -0.42778,0.52917 -9.40508,0.063 -9.40507,0.063 z m -26.242245,-2.78753 0.597732,-0.65761 -0.200857,-0.22123 -0.200857,-0.22122 0.304826,0.17431 0.304827,0.17432 0.544113,-0.9222 0.544113,-0.9222 -0.502153,-0.26875 -0.502154,-0.26874 -0.168015,0.27185 -0.168015,0.27186 0.218104,-0.0379 0.218104,-0.0379 0.346344,0.0313 0.346344,0.0313 -0.166189,0.2689 -0.166189,0.2689 -0.287181,-0.17748 -0.287182,-0.17749 0.188787,0.30546 0.188787,0.30546 h -0.112053 -0.112053 l -0.89575,-0.78952 -0.895749,-0.78952 -0.214052,-0.004 -0.214053,-0.004 0.163522,-0.26458 0.163521,-0.26458 h -0.280198 -0.280198 v 0.39687 0.39688 h -0.208279 -0.208279 l -0.04283,-0.56861 -0.04283,-0.56861 -0.278056,-0.27806 -0.278056,-0.27806 v 0.33533 0.33533 l -0.520353,-0.16515 -0.520353,-0.16515 -0.166014,0.66145 -0.166014,0.66145 0.176821,0.34577 0.176822,0.34577 -0.412013,-0.50746 -0.412012,-0.50746 0.257804,-0.31064 0.257805,-0.31063 -0.151433,-0.15143 -0.151433,-0.15144 0.34279,-0.61797 0.34279,-0.61797 0.0214,-0.26459 0.0214,-0.26458 0.279515,0.0531 0.279515,0.0531 -0.104946,-0.58225 -0.104946,-0.58225 1.00403,-1.7198 1.004029,-1.71979 1.450927,-1.4552 1.450928,-1.45521 -0.524886,0.39687 -0.524886,0.39688 0.356106,-0.45457 0.356106,-0.45456 0.173061,0.0335 0.173061,0.0335 0.461501,-0.20202 0.461501,-0.20202 -0.173191,-0.303 -0.173192,-0.30301 0.216513,0.19615 0.216513,0.19614 0.405862,-0.32844 0.405862,-0.32843 -0.181561,0.303 -0.181561,0.30301 0.419232,0.16087 0.419232,0.16088 0.281587,-0.17403 0.281587,-0.17403 -0.188787,0.30546 -0.188786,0.30547 h 0.45985 0.459851 l 0.878681,0.31773 0.878683,0.31774 v 0.23033 0.23033 l 0.33073,0.31183 0.33073,0.31183 0.7276,0.37544 0.7276,0.37543 v 0.21988 0.21987 h 0.26459 0.26458 v -0.54478 -0.54478 l 0.2689,0.16619 0.2689,0.16619 -0.13913,0.22511 -0.13913,0.22512 0.67326,0.52958 0.67325,0.52958 -0.54228,0.17211 -0.54229,0.17211 0.16823,0.27219 0.16822,0.27219 0.7514,-0.15028 0.7514,-0.15028 0.1563,0.25289 0.15629,0.25288 -0.45402,-0.17422 -0.45402,-0.17422 0.18001,0.29126 0.18001,0.29126 -0.30978,0.19146 -0.30978,0.19145 0.19279,-0.37161 0.1928,-0.37161 -0.43517,0.52917 -0.43518,0.52917 -0.2459,-0.0661 -0.24591,-0.0661 v 0.2802 0.2802 l -0.30547,-0.18879 -0.30546,-0.18878 0.16754,0.27108 0.16753,0.27108 -1.56799,1.09988 -1.56799,1.09988 -2.461267,1.96386 -2.46127,1.96386 -0.7987,0.75367 -0.798699,0.75366 -0.391926,0.22839 -0.391925,0.22839 z m 16.917825,-8.59099 -0.16285,-0.16284 0.58407,-0.48752 0.58406,-0.48752 -0.20875,-0.009 -0.20874,-0.009 0.53947,-0.57905 0.53947,-0.57906 v -0.26839 -0.26839 l -1.11194,1.04589 -1.11194,1.04588 0.3799,-0.52917 0.3799,-0.52916 0.74337,-0.79375 0.74338,-0.79375 0.45169,-0.48943 0.45169,-0.48942 -0.0686,-0.24555 -0.0686,-0.24554 0.39781,-0.15265 0.39781,-0.15265 -0.0969,-0.17072 -0.0969,-0.17071 0.50577,-0.5203 0.50576,-0.52031 -0.42803,1.04947 -0.42803,1.04947 -0.31001,0.26554 -0.31,0.26554 -0.0866,0.39592 -0.0865,0.39592 -0.77503,1.35806 -0.77504,1.35806 -0.35339,0.29329 -0.35339,0.29329 z m -50.318715,-8.82002 -0.158344,-0.25621 0.376439,-1.44154 0.376439,-1.44155 -0.299856,-0.31969 -0.299855,-0.3197 0.323878,-0.11899 0.323878,-0.11898 -0.390182,-0.59549 -0.390181,-0.5955 0.819323,-2.49359 0.819323,-2.4936 0.925414,-2.07257 0.925414,-2.07258 1.272807,-2.20392 1.272806,-2.20393 1.128266,-1.54433 1.128265,-1.54434 1.050308,-1.27104 1.050308,-1.27103 0.351817,0.135 0.351818,0.13501 0.145081,-0.23475 0.145081,-0.23475 -0.30978,-0.19145 -0.309779,-0.19145 0.214052,0.34634 0.214052,0.34634 -0.329442,-0.2036 -0.329442,-0.20361 1.016166,-1.05061 1.016166,-1.05061 1.765246,-1.57369 1.765246,-1.57369 -0.305701,0.64777 -0.305702,0.64778 -0.184491,-0.11402 -0.184492,-0.11403 -0.177068,0.28651 -0.177069,0.2865 0.489516,0.37086 0.489515,0.37085 -0.379822,0.008 -0.379822,0.008 -0.65503,0.59532 -0.655029,0.59531 0.190571,-0.33073 0.19057,-0.33073 h -0.288724 -0.288724 l -0.189912,0.51338 -0.189911,0.51338 -0.264584,0.0488 -0.264583,0.0488 -0.529167,0.21609 -0.529166,0.21609 0.79375,-0.0319 0.79375,-0.0319 0.529166,-0.40999 0.529167,-0.40999 -0.911798,0.98655 -0.911799,0.98654 h -0.112786 -0.112786 l 0.334404,-0.40293 0.334404,-0.40293 -0.442184,0.16968 -0.442183,0.16968 0.143917,0.45344 0.143916,0.45345 -0.526992,0.47692 -0.526992,0.47692 0.01359,0.55966 0.01359,0.55965 -0.10004,0.45537 -0.10004,0.45536 -0.226466,0.2061 -0.226467,0.20609 0.190326,-0.33073 0.190326,-0.33073 h -0.280198 -0.280198 l -0.03133,0.46302 -0.03133,0.46302 0.01883,0.16092 0.01883,0.16092 -0.84739,0.76512 -0.847389,0.76513 0.793195,-0.92604 0.793196,-0.92605 -0.991633,0.9118 -0.991633,0.9118 v 0.096 0.096 l 0.264583,-0.16352 0.264584,-0.16352 v 0.25221 0.25222 l -0.779792,0.83477 -0.779792,0.83477 -0.01396,0.11925 -0.01396,0.11926 v 0.28019 0.2802 l -0.305463,-0.18878 -0.305464,-0.18879 0.158108,0.25582 0.158107,0.25583 -0.467873,0.71323 -0.467872,0.71323 -0.178522,-0.13443 -0.178521,-0.13442 0.119164,0.16326 0.119163,0.16326 -1.362372,2.68101 -1.362372,2.68101 -0.03573,0.13229 -0.03573,0.13229 -0.334831,0.79375 -0.334831,0.79375 -0.08578,0.39688 -0.08578,0.39687 -0.05158,0.1323 -0.05158,0.13229 0.03789,0.2181 0.03789,0.2181 -0.312817,-0.19333 -0.312817,-0.19333 0.1492,0.57054 0.149199,0.57054 h -0.26812 -0.268121 l 0.152295,0.39688 0.152295,0.39687 h -0.284586 -0.284587 l 0.152295,0.39688 0.152295,0.39687 h -0.287138 -0.287138 l 0.13838,0.52917 0.13838,0.52917 h -0.270672 -0.270672 l 0.138381,0.52916 0.13838,0.52917 h -0.270672 -0.270672 l 0.13838,0.52917 0.138381,0.52916 h -0.09191 -0.09191 z m 14.050677,-27.42148 -0.177342,0.50045 0.402932,-0.33441 0.402931,-0.3344 v -0.18809 -0.18809 h -0.386238 -0.386238 l -1.002824,1.08038 -1.002825,1.08038 1.163473,-1.05833 1.163473,-1.05833 z m 25.503408,24.05856 -0.004,-0.31183 -0.444311,-0.44431 -0.44431,-0.44431 0.510455,0.1104 0.510456,0.11039 -0.063,0.30549 -0.063,0.3055 0.3496,-0.13416 0.3496,-0.13415 v -0.36027 -0.36026 l -0.35277,0.13537 -0.35278,0.13538 v -0.29289 -0.29289 h -0.283484 -0.283483 l -0.377976,-0.37798 -0.377976,-0.37798 v -0.41577 -0.41577 h -0.526925 -0.526924 l -0.33047,-0.52917 -0.33047,-0.52917 H 96.50927 96.043748 v -0.26458 -0.26458 l -0.33073,-0.008 -0.330729,-0.008 -0.527878,-0.39891 -0.527877,-0.39891 0.395586,-0.27909 0.395586,-0.2791 -0.484661,0.15725 -0.48466,0.15725 h -0.242944 -0.242943 l -0.01525,1.25677 -0.01525,1.25677 -0.240594,1.05834 -0.240594,1.05833 0.132086,-9.35991 0.132086,-9.3599 0.265357,-0.49582 0.265356,-0.49583 0.586003,-0.36563 0.586004,-0.36564 1.190625,-0.13933 1.190625,-0.13934 -0.463021,0.1275 -0.463021,0.12749 v 0.22193 0.22193 l 1.12448,0.17685 1.124479,0.17685 0.931514,0.23714 0.931513,0.23714 0.47251,0.79989 0.4725,0.79989 0.31578,1.7e-4 0.31577,1.6e-4 1.51642,1.19046 1.51643,1.19046 h 0.26341 0.26341 l 0.42665,0.65114 0.42664,0.65114 0.5055,0.16044 0.50549,0.16044 0.005,0.3129 0.005,0.3129 0.65688,0.62308 0.65689,0.62308 v 0.36911 0.3691 h 0.39688 0.39687 v 0.23151 0.23151 l 0.8599,0.19998 0.85989,0.19997 -0.47707,0.11979 -0.47707,0.11979 0.30861,0.37185 0.30862,0.37186 0.25487,-0.15752 0.25486,-0.15752 0.44376,0.49116 0.44375,0.49116 -0.0855,0.59532 -0.0855,0.59531 h 0.38288 0.38288 l 0.29866,-0.35986 0.29866,-0.35987 0.7031,0.13441 0.7031,0.1344 -0.18167,-0.47342 -0.18167,-0.47342 0.36113,0.29971 0.36113,0.29971 0.11112,-0.0638 0.11111,-0.0639 -0.32978,0.29074 -0.32979,0.29075 0.13458,0.13457 0.13457,0.13457 -0.46942,0.36843 -0.46941,0.36844 0.39688,-0.51256 0.39687,-0.51256 -0.43078,0.16115 -0.43078,0.16116 -0.26696,-0.26696 -0.26696,-0.26697 -0.17777,0.28764 -0.17777,0.28764 h 0.41249 0.41249 v 0.29289 0.29289 l -0.37875,-0.14534 -0.37874,-0.14534 0.0885,0.45954 0.0885,0.45953 -0.56632,0.0427 -0.56631,0.0427 0.35564,-0.2198 0.35564,-0.2198 -0.26511,-0.16384 -0.2651,-0.16385 -0.16898,0.44035 -0.16898,0.44035 0.33969,0.23062 0.33969,0.23063 -0.52916,-0.0772 -0.52917,-0.0772 0.0727,0.3504 0.0727,0.35039 -0.24854,-0.1536 -0.24854,-0.15361 -0.0887,0.20487 -0.0887,0.20486 -1.32291,0.83126 -1.32292,0.83125 -3.96875,1.94209 -3.96875,1.94209 -0.19439,0.26458 -0.19438,0.26459 -0.008,-0.26459 -0.008,-0.26458 -0.25648,0.39688 -0.25648,0.39687 z"
         id="path10" /><path
         style="fill:#348544"
         d="m 109.47135,194.80202 1.65365,-0.0939 1.65364,0.0939 1.65365,0.0939 h -3.30729 -3.30729 z m 39.94693,-20.07193 -0.1595,-0.1595 0.23259,-0.61174 0.23258,-0.61175 -0.44791,-0.17369 -0.44792,-0.1737 0.42314,-0.31184 0.42313,-0.31183 0.0126,-0.13229 0.0126,-0.13229 0.47314,-0.99219 0.47314,-0.99219 h 0.45812 0.45811 l 0.13345,-0.33073 0.13346,-0.33072 0.0209,0.43216 0.0209,0.43216 -0.55289,0.14458 -0.55289,0.14459 0.18436,0.58086 0.18436,0.58087 -0.28989,-0.17917 -0.2899,-0.17916 0.14936,0.38924 0.14937,0.38924 -0.44741,0.68283 -0.44741,0.68284 h 0.18162 0.18162 l -0.4182,0.4182 -0.41821,0.41821 0.15034,0.24325 0.15034,0.24325 h -0.10381 -0.10381 z m 2.25232,-5.59579 -0.32107,-0.10703 0.43785,-0.83915 0.43785,-0.83916 1.10593,-2.74189 1.10594,-2.74189 0.15384,0.40092 0.15385,0.40092 -0.18021,0.1802 -0.18021,0.18021 -0.0222,0.17639 -0.0222,0.17639 -0.31045,0.74981 -0.31045,0.7498 0.1498,0.24238 0.1498,0.24238 h -0.30851 -0.3085 l 0.15229,0.39688 0.1523,0.39687 h -0.24798 -0.24797 l 0.16895,0.44028 0.16895,0.44028 -0.35451,-0.2191 -0.35451,-0.2191 0.14782,0.38522 0.14782,0.38522 -0.35896,0.49091 -0.35897,0.49092 0.096,0.15946 0.096,0.15946 -0.30869,0.28472 -0.30868,0.28472 z M 116.54896,165.89375 116.37462,165.1 h -0.37585 -0.37585 v -0.39687 -0.39688 h -0.2802 -0.2802 l 0.16352,-0.26458 0.16352,-0.26459 h -0.2802 -0.28019 v 0.25628 0.25628 l -0.44028,-0.16895 -0.44028,-0.16895 0.21811,0.37569 0.21812,0.3757 -0.2095,-0.18913 -0.2095,-0.18913 -0.56053,0.28793 -0.56052,0.28792 0.54951,-0.52945 0.5495,-0.52945 0.57498,-0.18249 0.57497,-0.18249 v -0.26237 -0.26237 l 0.24648,0.15234 0.24648,0.15233 0.34883,-0.48364 0.34883,-0.48364 0.29607,-0.17644 0.29607,-0.17644 0.0481,2.37545 0.0481,2.37544 h -0.12467 -0.12468 z m -17.163991,-0.13928 -0.16016,-0.41737 0.233828,0.14451 0.233829,0.14452 0.151712,-0.39536 0.151712,-0.39535 -0.7193,-0.004 -0.719301,-0.004 -0.264583,-0.19438 -0.264583,-0.19439 -0.09196,-0.66146 -0.09196,-0.66145 -0.24264,-0.29636 -0.242641,-0.29637 1.175385,-1.59664 1.175385,-1.59665 1.738903,-1.84333 1.73891,-1.84333 v -0.21918 -0.21919 l -0.3175,0.3175 -0.3175,0.3175 -0.27781,-0.004 -0.27782,-0.004 0.37986,-0.24036 0.37987,-0.24037 -0.3437,-0.41413 -0.34369,-0.41413 -0.23892,0.14767 -0.23892,0.14766 0.17542,0.31244 0.17542,0.31245 -0.3451,-0.31952 -0.3451,-0.31951 0.35256,-0.42481 0.35256,-0.42481 0.23145,0.4136 0.23146,0.41359 h 0.22803 0.22802 l -0.0543,-0.37018 -0.0543,-0.37019 -0.34418,-0.41471 -0.34418,-0.41471 0.75265,-0.66195 0.75265,-0.66195 0.15796,-0.008 0.15795,-0.008 0.6358,-0.52426 0.63579,-0.52426 0.38457,-0.33563 0.38457,-0.33564 0.93835,-0.74411 0.93835,-0.74412 1.52135,-1.47338 1.52135,-1.47339 v 0.19938 0.19938 l 0.39397,-0.32696 0.39396,-0.32696 -0.14905,-0.24116 -0.14904,-0.24116 0.35039,0.0727 0.3504,0.0727 -0.0727,-0.3504 -0.0727,-0.35039 0.24341,0.15044 0.24342,0.15044 0.20202,-0.46151 0.20202,-0.4615 -0.0335,-0.17306 -0.0335,-0.17306 0.36717,-0.30472 0.36717,-0.30473 -0.0525,0.35744 -0.0525,0.35743 -0.78619,1.24436 -0.78619,1.24436 -0.21406,4.7e-4 -0.21405,4.7e-4 0.15233,0.24648 0.15234,0.24648 -0.53191,0.37257 -0.53191,0.37256 0.15414,0.15414 0.15415,0.15415 -1.06536,1.40962 -1.06536,1.40963 -2.36834,2.48119 -2.36834,2.48119 -0.36015,-0.20851 -0.36015,-0.2085 0.19609,0.21646 0.1961,0.21647 -0.94141,1.14887 -0.94142,1.14887 h 0.29792 0.29791 l -0.18104,0.29293 -0.18104,0.29293 0.62844,-0.19351 0.62845,-0.19351 -0.19363,0.20445 -0.19362,0.20444 0.55578,0.48203 0.55578,0.48203 0.49774,0.15797 0.49774,0.15798 v 0.24675 0.24676 h 0.53484 0.53484 l 1.04992,0.6948 1.04991,0.6948 0.39962,0.80106 0.39962,0.80105 v 0.12404 0.12404 l -0.44641,-0.36312 -0.44641,-0.36313 0.16512,0.44112 0.16512,0.44113 -0.40404,0.15504 -0.40405,0.15505 -0.24071,-0.14876 -0.2407,-0.14877 v 0.25894 0.25893 l -1.25677,0.41341 -1.25677,0.41341 -0.66146,0.11736 -0.66146,0.11736 -0.13229,0.0502 -0.13229,0.0502 -0.26459,0.0615 -0.26458,0.0615 -0.13229,0.0605 -0.13229,0.0605 -0.52917,0.11605 -0.52917,0.11605 -0.52916,0.0428 -0.52917,0.0428 -0.299831,0.22452 -0.29983,0.22453 z m -37.073407,-0.91551 -0.161332,-0.26104 -0.781221,-2.16341 -0.781221,-2.16341 0.133187,-0.13319 0.133188,-0.13319 0.08169,0.11025 0.08169,0.11024 0.790487,2.4474 0.790487,2.44739 h -0.06282 -0.06282 z m 26.919165,-3.87848 v -0.68316 l -0.343219,-0.21212 -0.343219,-0.21212 0.323874,-2.99894 0.323873,-2.99893 0.222768,-0.0788 0.222768,-0.0788 -0.13727,-0.58263 -0.13727,-0.58263 0.421414,0.52917 0.421415,0.52917 -0.239052,-0.865 -0.239051,-0.86501 0.247578,0.15302 0.247578,0.15301 v -0.29803 -0.29803 l 0.529167,0.16795 0.529166,0.16795 v -0.33533 -0.33533 l 0.278056,0.27806 0.278056,0.27806 0.04283,0.56861 0.04283,0.56861 h 0.208279 0.208279 v -0.39688 -0.39687 h 0.280198 0.280198 l -0.163521,0.26458 -0.163522,0.26458 0.214053,0.004 0.214052,0.004 0.895749,0.78952 0.89575,0.78952 h 0.112053 0.112053 l -0.188787,-0.30546 -0.188787,-0.30546 0.287182,0.17749 0.287181,0.17748 0.166189,-0.2689 0.166189,-0.2689 -0.346344,-0.0313 -0.346344,-0.0313 -0.218104,0.0379 -0.218104,0.0379 0.168015,-0.27186 0.168015,-0.27185 0.505905,0.27075 0.505904,0.27075 -0.508249,0.83575 -0.50825,0.83575 0.169369,0.28328 0.169368,0.28327 -0.437008,-0.35428 -0.437008,-0.35428 0.107805,0.55978 0.107805,0.55979 -0.220773,-0.13644 -0.220774,-0.13645 -0.360708,0.44475 -0.360708,0.44475 0.396875,-0.22997 0.396875,-0.22998 -1.315161,1.43596 -1.31516,1.43596 -0.475204,0.34883 -0.475203,0.34883 0.152333,0.24648 0.152333,0.24648 h -0.280199 -0.280198 v 0.38757 0.38756 l -0.496094,0.2655 -0.496093,0.26551 z m -29.0561,-2.89411 0.171579,-0.68362 -0.31355,0.19378 -0.31355,0.19379 0.132433,-0.69278 0.132432,-0.69277 -0.201826,0.12473 -0.201826,0.12474 -0.486979,-2.58014 -0.486979,-2.58014 -5.78e-4,-5.29167 -5.79e-4,-5.29166 0.487477,-2.57969 0.487476,-2.57969 h 0.215358 0.215357 l -0.13838,-0.52916 -0.13838,-0.52917 h 0.270672 0.270672 l -0.13838,-0.52917 -0.138381,-0.52916 h 0.231798 0.231797 l 0.318687,0.51029 0.318687,0.5103 -0.321188,0.11251 -0.321188,0.1125 0.490173,0.55251 0.490172,0.55252 -0.138555,0.34603 -0.138555,0.34604 -0.04455,-0.52916 -0.04455,-0.52917 -0.368112,1.32292 -0.368113,1.32291 0.01349,0.26459 0.01349,0.26458 0.251418,-0.52917 0.251417,-0.52916 -0.134109,0.66146 -0.13411,0.66145 -0.0036,0.47864 -0.0036,0.47863 -0.261553,-0.16164 -0.261553,-0.16165 0.141303,0.36823 0.141304,0.36823 -0.408918,2.73482 -0.408917,2.73482 v 2.41085 2.41085 l 0.389419,3.03265 0.389418,3.03266 0.174367,0.99218 0.174367,0.99219 h -0.327885 -0.327885 z m 40.251663,-3.36609 0.15981,-0.41645 0.66981,-0.43888 0.66981,-0.43887 0.36725,0.42206 0.36725,0.42205 -0.30319,-0.24838 -0.30318,-0.24838 -0.89368,0.68165 -0.89368,0.68164 z m -7.693043,-14.16403 0.790542,-0.8643 0.0032,-0.44899 0.0032,-0.449 0.418923,0.0294 0.418924,0.0294 v -0.33491 -0.3349 l -0.418924,0.15661 -0.418923,0.1566 0.396875,-0.4972 0.396875,-0.4972 -0.345846,0.20804 -0.345846,0.20803 -0.646342,0.071 -0.646341,0.0709 v -0.19989 -0.19989 l 0.396875,-0.1523 0.396875,-0.15229 v 0.27189 0.2719 l 0.292831,-0.18098 0.292831,-0.18098 -0.326728,-0.20193 -0.326729,-0.20193 0.16745,-0.27094 0.167449,-0.27094 -0.390477,0.0573 -0.390477,0.0573 -0.184048,0.18405 -0.184047,0.18405 -0.683507,-0.004 -0.683507,-0.004 0.396875,-0.28245 0.396875,-0.28244 -0.946434,0.13014 -0.946435,0.13015 -0.905648,-0.22608 -0.905649,-0.22608 1.058333,0.0319 1.058333,0.0319 1.484607,-0.0463 1.484607,-0.0463 0.179568,-1.65365 0.179569,-1.65364 0.157314,-1.78594 0.157313,-1.78594 h 0.207393 0.207392 l 0.48466,-0.15725 0.484661,-0.15725 -0.395586,0.2791 -0.395586,0.27909 0.527877,0.39891 0.527878,0.39891 0.330729,0.008 0.33073,0.008 v 0.26458 0.26458 h 0.465522 0.465522 l 0.33047,0.52917 0.33047,0.52917 h 0.526924 0.526925 v 0.41577 0.41577 l 0.377976,0.37798 0.377976,0.37798 h 0.283483 0.283484 v 0.29289 0.29289 l 0.45495,-0.17459 0.45496,-0.17458 -0.18808,0.18808 -0.18807,0.18808 0.29971,0.36113 0.29971,0.36113 -0.4777,-0.18332 -0.47771,-0.18331 0.21658,0.35043 0.21658,0.35043 -0.30547,-0.18879 -0.30546,-0.18879 v 0.25862 0.25862 l -0.99219,0.60199 -0.992187,0.60198 -1.190625,0.87783 -1.190625,0.87783 -0.661459,0.52837 -0.661458,0.52836 -1.190625,0.98033 -1.190625,0.98034 z m -12.291502,-34.89181 -0.0084,-0.32119 0.987461,-0.671 0.987461,-0.671 -0.259857,-0.0292 -0.259856,-0.0292 -1.190625,-0.0645 -1.190625,-0.0645 -0.599819,0.39167 -0.599819,0.39167 0.164523,-0.42873 0.164522,-0.42874 0.196789,0.12162 0.19679,0.12162 0.52343,-0.48765 0.52343,-0.48764 0.641118,-0.19507 0.641119,-0.19507 0.529167,-0.48274 0.529166,-0.48274 0.132292,0.0228 0.132292,0.0228 0.595312,-0.18894 0.595313,-0.18895 v -0.23845 -0.23845 l 0.36276,0.13921 0.36276,0.1392 0.364844,-0.34595 0.364844,-0.34594 0.529167,-0.0926 0.529167,-0.0926 0.194386,-0.304288 0.194386,-0.304284 0.0041,0.230835 0.0041,0.230837 0.330729,-0.261597 0.330729,-0.261594 0.708184,0.03865 0.708185,0.03865 -0.04673,-0.237324 -0.04673,-0.237324 0.46141,-0.112262 0.461411,-0.112262 0.764028,-0.146753 0.764028,-0.146753 0.179239,0.290015 0.179239,0.290014 H 91.264466 90.95187 l 0.329377,0.396875 0.329377,0.396872 h -0.312595 -0.312595 l 0.146387,0.23686 0.146387,0.23686 -0.395355,0.15171 -0.395356,0.15172 -0.440278,-0.16896 -0.440279,-0.16895 0.174176,0.28183 0.174175,0.28182 -0.42889,0.16458 -0.428891,0.16458 -0.390031,-0.3237 -0.390032,-0.32369 -0.394427,-0.0579 -0.394428,-0.0579 0.178585,0.17858 0.178584,0.17858 h 0.286632 0.286632 l 0.122519,0.36756 0.12252,0.36756 -0.27631,-0.17077 -0.27631,-0.17077 -0.09266,0.27799 -0.09266,0.27799 -0.591394,0.0446 -0.591393,0.0446 v 0.15927 0.15928 l -0.916025,0.43682 -0.916025,0.43682 -0.157923,-0.25553 -0.157924,-0.25552 h -0.281365 -0.281366 l 0.354404,0.46302 0.354403,0.46302 -0.229699,-0.19433 -0.2297,-0.19432 -0.378489,0.45891 -0.37849,0.4589 0.142335,-0.45454 0.142336,-0.45455 -0.271569,-0.16784 -0.27157,-0.16784 -0.206578,-0.55843 -0.206579,-0.55844 -0.330444,0.61744 -0.330443,0.61744 0.261001,-0.16131 0.261001,-0.16131 0.360709,0.44475 0.360708,0.44475 -0.375692,-0.22648 -0.375692,-0.22648 0.174223,0.45402 0.174224,0.45402 -0.306515,-0.18944 -0.306516,-0.18944 0.174224,0.45402 0.174224,0.45402 -0.233828,-0.14451 -0.233829,-0.14451 -0.158147,0.41212 -0.158147,0.41213 -0.266452,-0.16468 -0.266452,-0.16468 v 0.3243 0.32429 l -0.172277,-0.17227 -0.172276,-0.17228 -0.348476,0.45891 -0.348475,0.45891 z m 3.393271,-3.27971 -0.358977,-0.22746 0.271858,-0.004 0.271857,-0.004 0.521893,0.36541 0.521892,0.36541 0.388208,-0.41577 0.388208,-0.41578 -0.487736,0.18716 -0.487736,0.18717 0.427316,-0.65217 0.427316,-0.65217 -0.302522,-0.18697 -0.302523,-0.18697 0.180582,0.29219 0.180583,0.29219 -0.602723,0.32118 -0.602723,0.32117 0.350129,-0.42453 0.350129,-0.42453 -0.782901,0.29551 -0.782901,0.29551 0.0818,0.41643 0.0818,0.41643 0.02024,0.21406 0.02024,0.21405 0.292831,-0.18098 0.292831,-0.18098 z m 5.685945,-2.05255 0.488672,-0.19231 -0.422526,-0.350661 -0.422526,-0.350666 v 0.438581 0.438576 l -0.51311,-0.2746 -0.513109,-0.274611 -0.151589,0.245275 -0.151588,0.245276 0.466261,0.12162 0.46626,0.12163 0.132291,0.0121 0.132292,0.0121 z m 40.124869,2.86368 -0.39687,-0.24512 -1.71979,-0.76145 -1.7198,-0.76146 -0.59531,-0.18633 -0.59531,-0.18632 v -0.27506 -0.27507 l -0.38622,0.14821 -0.38622,0.14821 -1.81641,-0.63462 -1.8164,-0.634609 -2.66758,-0.543619 -2.66759,-0.543619 h -0.67042 -0.67043 l -0.14664,-0.237268 -0.14664,-0.237268 -6.0722,-0.0027 -6.0722,-0.0027 -0.28338,-0.17514 -0.28339,-0.17514 0.15223,-0.246301 0.15222,-0.246301 -0.47864,-0.0041 -0.478634,-0.0041 -0.369752,-0.234119 -0.369752,-0.234118 1.163498,-0.02465 1.16351,-0.02465 4.87467,-0.0091 4.87467,-0.0091 0.16408,0.265498 0.16409,0.265498 0.78208,-0.0108 0.78207,-0.0108 0.79375,0.04632 0.79375,0.04632 0.33713,0.273146 0.33712,0.273146 0.14581,-0.145814 0.14582,-0.145813 0.83998,0.257855 0.83998,0.257855 0.79375,0.13971 0.79375,0.13971 0.30288,0.248995 0.30288,0.248995 0.22628,-0.04062 0.22629,-0.04062 0.19844,0.06441 0.19844,0.0644 0.26458,0.06615 0.26458,0.06615 0.13229,0.06615 0.1323,0.06615 0.19843,0.05592 0.19844,0.05592 0.52917,0.198017 0.52916,0.198018 1.04977,0.44059 1.04976,0.440591 0.14086,0.0268 0.14086,0.0268 0.8599,0.32982 0.8599,0.32981 v 0.2387 0.2387 l 0.19843,-0.0594 0.19844,-0.0594 1.52648,0.75439 1.52648,0.75439 0.14278,0.23103 0.14278,0.23103 -0.21405,-0.0156 -0.21405,-0.0156 z m -37.570833,-3.560232 -0.661458,-0.378123 0.251354,-0.0094 0.251354,-0.0094 -0.3175,-0.3175 -0.3175,-0.3175 V 98.396857 98.20996 l 0.529167,0.138381 0.529167,0.13838 v -0.270672 -0.270672 l 0.529166,0.13838 0.529167,0.13838 v -0.251344 -0.251345 l 0.330729,-0.04851 0.33073,-0.04851 0.79375,-0.09376 0.79375,-0.09377 v -0.05101 -0.05101 l 0.926041,-0.131097 0.926042,-0.131097 0.529167,0.01286 0.529166,0.01286 0.457719,0.01968 0.457719,0.01968 -0.325427,0.353964 -0.325427,0.353965 -0.08819,-0.238516 -0.08819,-0.238516 H 98.123237 97.60099 l -1.17221,0.295166 -1.17221,0.295166 0.129056,0.208817 0.129056,0.208817 0.992137,-0.128339 0.992137,-0.128338 0.661458,0.286868 0.661459,0.286869 -1.190625,-0.148969 -1.190625,-0.148968 0.35207,0.242864 0.352071,0.242865 -0.812198,0.162439 -0.812197,0.16244 -0.443173,-0.170062 -0.443172,-0.170061 0.208829,0.337892 0.208828,0.337892 -0.5623,-0.178467 -0.5623,-0.178467 v 0.274109 0.274109 l -0.396875,-0.152295 -0.396875,-0.152295 v 0.29289 0.292888 l -0.198438,-0.009 -0.198437,-0.0094 z"
         id="path9" /><path
         style="fill:#207443"
         d="m 93.133331,199.20294 v -0.29289 l -0.410617,0.15757 -0.410617,0.15757 0.140234,-0.22691 0.140235,-0.2269 -1.515555,-1.27571 -1.515555,-1.27571 -0.661459,-0.80833 -0.661458,-0.80833 0.67825,0.52804 0.67825,0.52803 0.869759,0.99133 0.869759,0.99133 0.210204,-0.12991 0.210204,-0.12991 0.151713,0.39535 0.151712,0.39536 h 0.405179 0.405178 v 0.23372 0.23373 l 0.529167,0.13838 0.529167,0.13838 v 0.28935 0.28935 h -0.396875 -0.396875 z m 39.158339,-6.85086 v -0.26458 h 0.41249 0.41249 l -0.16758,-0.27114 -0.16757,-0.27114 0.2181,0.0379 0.21811,0.0379 0.23083,-0.0313 0.23084,-0.0313 -0.36313,-0.46302 -0.36313,-0.46302 0.46942,0.36843 0.46941,0.36844 0.1385,-0.1385 0.1385,-0.1385 -0.42838,-0.42837 -0.42837,-0.42837 h 0.36286 0.36286 l 0.27579,0.27579 0.2758,0.2758 0.37243,-0.45763 0.37243,-0.45762 -0.43774,0.16382 -0.43775,0.16383 0.0713,-0.64989 0.0713,-0.64989 -0.2289,-0.14147 -0.22891,-0.14147 v 0.2625 0.2625 l -0.80963,-0.023 -0.80963,-0.023 0.34661,-0.21981 0.34661,-0.21982 0.47863,-0.004 0.47864,-0.004 -0.12958,-0.20966 -0.12957,-0.20966 0.57364,-0.0432 0.57365,-0.0432 -0.35564,0.2198 -0.35564,0.2198 0.31087,0.19213 0.31086,0.19213 -0.16431,0.42819 -0.16431,0.42819 0.18808,-0.18807 0.18807,-0.18808 0.31098,0.25808 0.31097,0.25809 v -0.38103 -0.38104 l -0.26136,0.16153 -0.26137,0.16154 0.21356,-0.34555 0.21356,-0.34554 0.35649,0.48752 0.35649,0.48753 v -0.46306 -0.46306 l 0.33073,0.16603 0.33072,0.16603 -0.8893,-0.78955 -0.88931,-0.78955 0.17998,-0.29122 0.17999,-0.29122 0.21858,0.13508 0.21857,0.13509 0.16625,-0.43322 0.16624,-0.43323 0.1421,0.1421 0.1421,0.1421 0.65719,-0.65719 0.65719,-0.65719 0.39885,0.15306 0.39885,0.15305 -0.15147,-0.24508 -0.15147,-0.24508 2.18825,-2.09755 2.18825,-2.09755 0.66816,-0.6309 0.66817,-0.6309 1.42855,-1.78594 1.42856,-1.78594 h 0.21838 0.21839 l -0.0641,-0.19844 -0.0641,-0.19843 0.39481,-0.54659 0.39482,-0.5466 0.46303,-0.17271 0.46302,-0.1727 v -0.30529 -0.30528 l -0.46302,0.36312 -0.46303,0.36313 0.36071,-0.46011 0.36071,-0.46011 0.27957,0.17279 0.27957,0.17278 -0.16378,-0.42681 -0.16378,-0.4268 0.36829,0.14133 0.36829,0.14132 -0.25102,0.7051 -0.25102,0.70509 0.42878,-0.52916 0.42878,-0.52917 -0.098,0.26458 -0.098,0.26459 -0.73055,1.38906 -0.73054,1.38906 h -0.14345 -0.14345 l 0.18878,-0.30546 0.18879,-0.30547 -0.30978,0.19146 -0.30978,0.19145 0.17466,0.28261 0.17466,0.2826 -0.63336,0.51582 -0.63337,0.51583 0.38277,-0.20303 0.38276,-0.20302 -0.62838,0.90767 -0.62838,0.90767 -1.31495,1.64502 -1.31494,1.64503 -0.26626,-0.16455 -0.26625,-0.16456 0.18348,0.29689 0.18348,0.29688 -2.32541,2.33657 -2.32542,2.33658 -1.85208,1.45816 -1.85209,1.45816 -1.23829,0.84405 -1.2383,0.84406 h -0.28306 -0.28305 z m 5.59797,-4.17532 -0.32839,-0.10947 0.32901,-0.43729 0.32901,-0.43729 -0.34443,0.30427 -0.34442,0.30427 -0.53838,-0.53838 -0.53838,-0.53837 -0.24517,0.43811 -0.24518,0.4381 -0.31447,-0.18864 -0.31447,-0.18865 0.33275,0.41106 0.33275,0.41106 0.65944,-0.0724 0.65944,-0.0724 v 0.36528 0.36527 l 0.44964,-0.17255 0.44965,-0.17254 z m -69.039474,-2.51252 -1.646003,-1.66077 v -0.21337 -0.21336 l 0.284427,0.0948 0.284427,0.0948 -0.08599,0.13723 -0.08599,0.13722 1.207157,1.22448 1.207158,1.22448 0.346593,0.41762 0.346594,0.41762 h -0.106186 -0.106186 z m 31.360774,-2.2393 1.65364,-0.0939 1.65365,0.0939 1.65364,0.0939 h -3.30729 -3.307291 z m 16.44864,-2.64838 -0.0217,-0.19843 0.0405,-1.52391 0.0405,-1.5239 -0.3144,-1.94895 -0.3144,-1.94895 -0.49817,0.13027 -0.49817,0.13028 -0.008,0.29987 -0.008,0.29987 -0.28732,-0.49453 -0.28732,-0.49453 0.28976,-0.17908 0.28975,-0.17907 -0.52658,-0.45088 -0.52658,-0.45087 h -0.26156 -0.26156 v 0.27959 0.27958 l -0.59531,-0.41697 -0.59532,-0.41697 -0.0331,-0.25949 -0.0331,-0.25949 -0.0331,-0.15119 -0.0331,-0.15119 -0.41577,0.41577 -0.41578,0.41578 -0.31183,-0.0209 -0.31183,-0.0209 0.33073,-0.13345 0.33073,-0.13345 v -0.24254 -0.24253 h -0.36644 -0.36645 l -0.44202,-0.67462 -0.44203,-0.67461 -0.51445,0.16327 -0.51444,0.16328 v -0.26036 -0.26037 l 0.33073,-0.11094 0.33073,-0.11094 -0.98122,-0.95411 -0.98123,-0.95412 -0.82711,0.23721 -0.82712,0.23722 0.32937,-0.39687 0.32938,-0.39687 0.35448,0.13602 0.35449,0.13603 v -0.20401 -0.20401 l 1.38906,-0.50674 1.38906,-0.50674 0.35728,0.0753 0.35728,0.0753 -0.13246,-0.21614 -0.13247,-0.21613 1.43045,-0.70496 1.43045,-0.70495 -0.14765,0.2389 -0.14765,0.23891 0.4091,-0.15699 0.40909,-0.15698 -0.18156,-0.30301 -0.18156,-0.303 0.49845,0.39687 0.49846,0.39688 -0.22649,-0.3757 -0.22648,-0.37569 0.44028,0.16895 0.44028,0.16895 v -0.25628 -0.25628 h 0.28019 0.2802 l -0.16352,0.26459 -0.16352,0.26458 h 0.2802 0.2802 v 0.39688 0.39687 h 0.36601 0.36602 l 0.18333,0.59531 0.18332,0.59532 0.14198,7.34218 0.14197,7.34219 h -0.16215 -0.16215 z m 34.42849,-11.19916 0.29418,-0.54969 0.37658,0.14451 0.37659,0.14451 v -0.30038 -0.30038 l 0.12179,0.1218 0.1218,0.1218 -0.1585,0.60612 -0.15851,0.60613 -0.22382,-0.3531 -0.22383,-0.35309 -0.004,0.33072 -0.004,0.33073 h -0.40618 -0.40619 z m -88.185004,-2.80212 -0.729221,-1.76024 0.111801,-0.1118 0.111801,-0.1118 0.559135,1.26402 0.559136,1.26401 0.153114,0.61006 0.153114,0.61005 -0.09483,-0.002 -0.09483,-0.002 z m 31.817765,-0.31781 v -0.26569 l 1.221322,-1.80266 1.221323,-1.80266 0.231681,-0.20064 0.231681,-0.20065 -0.127791,0.1763 -0.127792,0.1763 0.236472,0.28893 0.236471,0.28893 0.09196,0.66145 0.09196,0.66146 0.264583,0.19439 0.264583,0.19438 0.719301,0.004 0.7193,0.004 -0.151712,0.39535 -0.151712,0.39536 -0.233829,-0.14452 -0.233828,-0.14451 0.146596,0.38202 0.146596,0.38203 -1.935564,0.17986 -1.935564,0.17987 -0.463021,0.13114 -0.463021,0.13114 z m -2.232703,-3.99292 0.512911,-0.51879 0.529167,-0.70764 0.529167,-0.70763 1.036355,-1.16619 1.036355,-1.16618 0.366449,0.14062 0.366449,0.14062 -0.171952,-0.27823 -0.171953,-0.27822 0.458155,-0.50626 0.458155,-0.50625 0.235778,0.14572 0.235778,0.14571 -0.0727,-0.23182 -0.0727,-0.23183 1.058334,-0.91232 1.058333,-0.91232 -0.264583,0.40937 -0.264584,0.40937 0.62435,-0.67395 0.624351,-0.67395 -0.21283,0.39687 -0.21283,0.39688 0.9114,-0.7089 0.91139,-0.7089 -0.0857,-0.34201 -0.0857,-0.34201 0.50465,0.45669 0.50464,0.4567 v 0.39578 0.39577 h -0.20734 -0.20734 l -0.23146,-0.41359 -0.23145,-0.4136 -0.35256,0.42481 -0.35256,0.42481 0.3451,0.31951 0.3451,0.31952 -0.17542,-0.31245 -0.17542,-0.31244 0.23892,-0.14766 0.23892,-0.14767 0.34369,0.41413 0.3437,0.41413 -0.37987,0.24037 -0.37986,0.24036 0.27782,0.004 0.27781,0.004 0.3175,-0.3175 0.3175,-0.3175 v 0.20989 0.20988 l -2.01211,2.15814 -2.012109,2.15814 -0.227328,-0.063 -0.227328,-0.063 0.13481,0.35131 0.134811,0.35131 -0.475062,0.36036 -0.475061,0.36036 0.291435,-0.33159 0.291434,-0.33159 -0.124963,-0.6537 -0.124963,-0.65371 -0.385075,0.31959 -0.385074,0.31958 -0.201627,-0.32624 -0.201628,-0.32624 -0.373519,0.46019 -0.37352,0.46019 0.330729,-0.1987 0.330729,-0.1987 v 0.39605 0.39605 l -0.52159,-0.0393 -0.521591,-0.0393 0.04855,-0.58665 0.04855,-0.58665 0.190172,0.11753 0.190172,0.11753 0.143657,-0.23244 0.143657,-0.23244 -0.588396,0.0342 -0.588395,0.0343 0.07718,0.52461 0.07718,0.52461 -0.245365,-0.36354 -0.245365,-0.36355 -1.377319,1.75261 -1.377319,1.7526 h -0.290322 -0.290322 z m -22.053165,-12.90882 0.0558,-7.60677 0.07487,2.64583 0.07487,2.64584 0.06777,4.96124 0.06777,4.96124 -0.198437,-3e-4 -0.198438,-3.1e-4 z m 17.109045,-0.7276 -0.03307,-0.1323 -0.05499,-0.33072 -0.05499,-0.33073 0.358742,-0.59532 0.358742,-0.59531 H 87.947658 87.77687 l 0.319758,-0.38528 0.319759,-0.38529 -0.159386,-0.25789 -0.159385,-0.25789 0.309779,-0.19145 0.30978,-0.19146 -0.196132,0.37161 -0.196132,0.37161 0.546243,-0.66146 0.546244,-0.66146 0.0059,-0.21733 0.0059,-0.21734 -0.418206,0.41821 -0.418205,0.4182 -0.243253,-0.15034 -0.243253,-0.15033 0.0041,-0.31512 0.0041,-0.31511 0.256481,0.39687 0.25648,0.39688 0.02555,-0.1323 0.02555,-0.13229 0.05339,-0.7276 0.05339,-0.7276 h -0.306394 -0.306393 l -0.15875,0.79375 -0.15875,0.79374 h -0.403489 -0.40349 v -0.52916 -0.52917 h 0.264583 0.264584 v -0.26458 -0.26458 h -0.246754 -0.246754 l -0.167951,0.52916 -0.167951,0.52917 h -0.350317 -0.350317 l -0.423461,-1.05833 -0.423461,-1.05834 h -0.376969 -0.376968 l -0.134198,-0.33073 -0.134197,-0.33073 -0.258023,0.36929 -0.258024,0.36928 -0.423578,-0.16254 -0.423578,-0.16254 v -0.65194 -0.65193 l -0.564125,-0.17905 -0.564126,-0.17904 0.344896,-0.21316 0.344896,-0.21316 -1.003707,-0.41937 -1.003708,-0.41938 h -0.333704 -0.333704 l -0.134738,-0.51524 -0.134738,-0.51523 0.302317,-0.11207 0.302316,-0.11207 -0.727604,0.0915 -0.727604,0.0915 v -0.3692 -0.3692 l -1.739748,-0.18631 -1.739748,-0.18632 -0.297544,0.29755 -0.297544,0.29754 -0.277812,-0.004 -0.277813,-0.004 0.396875,-0.25648 0.396875,-0.25648 -0.529166,-0.008 -0.529167,-0.008 0.396875,-0.26927 0.396875,-0.26928 7.672917,0.0535 7.672917,0.0535 0.880288,0.12549 0.880288,0.12549 -0.351121,0.2226 -0.351122,0.22261 0.683507,0.004 0.683507,0.004 0.184047,-0.18405 0.184048,-0.18405 0.390477,-0.0573 0.390477,-0.0573 -0.167449,0.27094 -0.16745,0.27094 0.326729,0.20193 0.326728,0.20193 -0.292831,0.18098 -0.292831,0.18098 v -0.2719 -0.27189 l -0.396875,0.15229 -0.396875,0.1523 v 0.19989 0.19989 l 0.646341,-0.0709 0.646342,-0.071 0.345846,-0.20803 0.345846,-0.20804 -0.396875,0.4972 -0.396875,0.4972 0.418923,-0.1566 0.418924,-0.15661 v 0.34643 0.34642 l -0.396181,-0.15203 -0.396182,-0.15203 0.216576,0.35043 0.216576,0.35043 -0.305464,-0.18879 -0.305464,-0.18879 v 0.22728 0.22729 l 0.266328,0.26632 0.266327,0.26633 -0.860678,0.77878 -0.860679,0.77877 0.660497,-0.79375 0.660497,-0.79375 -0.726561,0.64046 -0.726561,0.64045 0.123431,0.12343 0.123432,0.12343 -0.498491,0.69133 -0.49849,0.69132 -0.48588,0.54264 -0.48588,0.54264 -0.380476,0.64798 -0.380475,0.64799 -0.662166,1.19062 -0.662165,1.19063 -0.280276,0.19439 -0.280276,0.19438 0.230835,0.004 0.230834,0.004 -0.294685,0.35508 -0.294684,0.35507 0.174093,0.17409 0.174093,0.1741 H 87.75347 87.577081 Z m -26.709301,-26.6307 0.530324,-0.56923 -0.138757,-0.22452 -0.138758,-0.22451 h 0.251516 0.251515 l 0.154106,-0.59531 0.154107,-0.59532 1.064835,-1.19062 1.064836,-1.19063 3.66e-4,-0.35903 3.66e-4,-0.35904 0.34276,0.13153 0.342761,0.13153 0.03935,-0.5224 0.03935,-0.52241 0.54393,-0.47175 0.543929,-0.47174 v -0.27618 -0.27617 l 0.79375,-0.6679 0.79375,-0.6679 v -0.23709 -0.23709 l 2.906202,-2.62285 2.906201,-2.62286 0.301872,-0.10063 0.301872,-0.10062 0.505744,-0.50574 0.505744,-0.50575 0.236651,0.14626 0.23665,0.14626 0.191455,-0.30978 0.191454,-0.30978 -0.305464,0.18879 -0.305464,0.18878 v -0.11747 -0.11748 l 0.694035,-0.45475 0.694035,-0.45475 -0.196797,0.31843 -0.196797,0.31842 0.555032,-0.29704 0.555032,-0.29705 0.263297,-0.49197 0.263297,-0.49198 0.417967,-0.16039 0.417967,-0.16039 -0.159776,0.25853 -0.159775,0.25852 0.402251,-0.15436 0.402251,-0.15436 -0.05778,-0.30563 -0.05778,-0.30563 0.396875,0.0966 0.396875,0.0966 1.075173,0.0558 1.075173,0.0558 0.29484,0.18222 0.294841,0.18222 0.17039,-0.53685 0.17039,-0.53685 0.31168,0.18692 0.31168,0.18692 -0.360708,-0.44475 -0.360709,-0.44475 -0.261001,0.16131 -0.261001,0.16131 0.281671,-0.52631 0.281671,-0.52631 -0.189128,-0.2095 -0.189129,-0.2095 0.33073,0.19033 0.330729,0.19033 v 0.34886 0.34886 l 0.381148,0.31633 0.381148,0.31632 -0.141007,0.36746 -0.141008,0.36746 -0.57087,0.19423 -0.57087,0.19424 -0.310777,-0.0589 -0.310778,-0.0589 -0.193123,0.31248 -0.193124,0.31248 0.346344,-0.21405 0.346344,-0.21405 -0.181645,0.29391 -0.181646,0.29391 -0.431805,-0.1657 -0.431805,-0.1657 0.216576,0.35042 0.216575,0.35043 -0.289202,-0.17874 -0.289203,-0.17873 -0.214698,0.34402 -0.214699,0.34403 -1.989766,1.48274 -1.989766,1.48274 -1.714401,1.571 -1.714401,1.57099 -1.389063,1.4081 -1.389062,1.4081 v 0.22347 0.22346 l -1.058333,0.6681 -1.058334,0.6681 -0.0041,0.4597 -0.0041,0.4597 -0.25648,-0.39687 -0.25648,-0.39688 -0.0041,-0.16758 -0.0041,-0.16758 0.564114,-0.14752 0.564113,-0.14751 -0.138,-0.52771 -0.137999,-0.52772 0.370414,-0.14214 0.370414,-0.14214 0.19566,-0.0297 0.19566,-0.0297 0.330729,-0.27448 0.330729,-0.27448 -0.02089,-0.29834 -0.02089,-0.29833 -0.133453,0.33073 -0.133452,0.33073 h -0.23423 -0.234231 l 0.140829,-0.46302 0.140829,-0.46302 -0.422166,0.7276 -0.422167,0.72761 h -0.275032 -0.275032 l 0.463026,-0.46302 0.463027,-0.46303 -0.495568,-0.0954 -0.495568,-0.0954 0.646753,-0.35819 0.646753,-0.3582 -0.346345,-0.009 -0.346344,-0.009 0.193387,-0.33073 0.193387,-0.33073 -0.529972,0.4636 -0.529973,0.4636 -0.216032,-0.19901 -0.216032,-0.19902 0.146588,0.59531 0.146587,0.59532 h -0.38772 -0.38772 l 0.166189,0.2689 0.166189,0.26889 0.246301,-0.15222 0.246301,-0.15222 v 0.1653 0.1653 l -0.268619,0.50192 -0.26862,0.50192 -0.408044,-0.15658 -0.408045,-0.15658 0.148147,-0.42888 0.148146,-0.42888 -0.416911,0.52917 -0.416912,0.52916 -0.254505,0.46303 -0.254505,0.46302 h 0.273892 0.273893 v -0.23628 -0.23628 l 0.448186,-0.17198 0.448187,-0.17199 -0.497638,0.54989 -0.497639,0.54988 -0.355893,-0.13657 -0.355893,-0.13657 -0.231985,0.61017 -0.231984,0.61016 -0.685587,0.44922 -0.685588,0.44921 v 0.39078 0.39077 H 63.296283 63.09257 l -1.142869,1.85209 -1.14287,1.85208 h -0.251224 -0.251225 z m 5.740958,-3.79209 -0.496206,-0.37575 0.151274,-0.39421 0.151273,-0.39421 0.523353,0.0394 0.523353,0.0394 -0.208814,0.40823 -0.208813,0.40822 0.118588,0.33073 0.118587,0.33073 -0.08819,-0.008 -0.08819,-0.008 z m 13.957497,-15.00577 -0.181592,-0.29383 0.305463,0.18879 0.305464,0.18879 v -0.2719 -0.27189 l 0.463021,0.14558 0.463021,0.14559 -0.513591,-0.41847 -0.51359,-0.41848 h 0.315153 0.315153 0.198437 0.198438 v 0.43272 0.43271 l -0.586892,0.2171 -0.586892,0.21711 z m 3.670481,-0.27821 0.06615,-0.33073 -0.330729,0.0661 -0.33073,0.0662 v -0.26458 -0.26459 l 0.06615,-0.0916 0.06615,-0.0916 -0.368153,-0.4436 -0.368152,-0.44359 0.418228,0.16049 0.418228,0.16048 0.479091,-0.27867 0.479092,-0.27868 -0.396876,-0.0161 -0.396875,-0.0161 0.476874,-0.27744 0.476874,-0.27744 0.373223,0.30975 0.373223,0.30975 -0.420458,0.6417 -0.420458,0.6417 0.496403,-0.17973 0.496403,-0.17973 -0.741236,0.70439 -0.741236,0.70439 h -0.11866 -0.11866 z m 4.097803,-2.7627 -0.466261,-0.12162 0.151588,-0.245276 0.151589,-0.245275 0.513109,0.274611 0.51311,0.2746 v -0.438576 -0.438581 l 0.422526,0.350666 0.422526,0.350661 -0.488672,0.19231 -0.488672,0.1923 -0.132292,-0.0121 -0.132291,-0.0121 z m 2.941903,-0.31714 0.358977,-0.227454 -0.321079,-0.198438 -0.321078,-0.198437 0.352608,-0.217924 0.352607,-0.217923 -0.655089,-0.2614 -0.655089,-0.261399 0.430624,-0.01677 0.430624,-0.01677 0.294684,0.355074 0.294685,0.355073 -0.149935,0.149935 -0.149935,0.149935 0.615251,0.195599 0.615252,0.195599 -0.529167,0.206842 -0.529167,0.20683 -0.396875,0.0145 -0.396875,0.0145 z m 4.11832,-1.916663 -0.105099,-0.167855 1.17221,-0.295166 1.17221,-0.295166 h 0.522247 0.522247 l 0.08819,0.238516 0.08819,0.238516 0.388208,-0.421172 0.388208,-0.421172 -0.412202,0.158177 -0.412201,0.158176 -0.372882,-0.236052 -0.372881,-0.236053 0.562239,-0.0041 0.56224,-0.0041 0.822528,0.164506 0.82253,0.164506 -0.145,0.234607 -0.14499,0.234607 0.61231,0.266415 0.61231,0.266414 -1.25677,-0.152572 -1.256772,-0.152573 v 0.251542 0.251541 l -1.87599,-0.03689 -1.875991,-0.03689 z"
         id="path8" /><path
         style="fill:#0b703b"
         d="m 103.78281,199.96819 -1.65365,-0.25397 v -0.21672 -0.21671 l -0.52916,0.13838 -0.52917,0.13838 -1.9e-4,-0.2293 -1.8e-4,-0.22929 -0.60519,-0.0347 -0.605191,-0.0347 -1.375427,-0.59169 -1.375427,-0.5917 0.1696,-0.27442 0.1696,-0.27441 -0.320735,0.19822 -0.320735,0.19823 -1.109208,-0.71631 -1.109208,-0.7163 -0.79375,-0.8438 -0.79375,-0.84379 0.392739,0.54286 0.392739,0.54285 -0.846352,-0.76809 -0.846352,-0.76809 0.163764,-0.26497 0.163765,-0.26498 -0.264976,0.16376 -0.264976,0.16377 -0.751448,-0.78434 -0.751447,-0.78435 0.247939,-0.008 0.247938,-0.008 -0.435584,-0.25433 -0.435584,-0.25433 -0.557059,-0.94414 -0.55706,-0.94415 0.331185,0.16781 0.331186,0.16781 -0.458909,-0.37651 -0.458908,-0.37651 0.172276,-0.17228 0.172277,-0.17228 h -0.280545 -0.280545 l -0.706794,-1.76554 -0.706795,-1.76554 0.160097,-0.63788 0.160097,-0.63787 -0.250326,0.15471 -0.250326,0.15471 -0.195804,-1.38932 -0.195803,-1.38931 0.01289,-2.64583 0.01289,-2.64583 0.422158,-1.98422 0.422158,-1.98422 0.250196,-0.0834 0.250195,-0.0834 -0.131336,-0.34226 -0.131336,-0.34226 0.702933,-1.75589 0.702932,-1.75589 0.233987,0.14461 0.233986,0.14461 -0.174224,-0.45402 -0.174224,-0.45402 0.350426,0.21657 0.350427,0.21658 -0.189475,-0.30658 -0.189476,-0.30658 0.588144,-1.04646 0.588144,-1.04646 0.194185,0.12002 0.194185,0.12001 0.156986,-0.4091 0.156985,-0.4091 -0.327698,0.169 -0.327699,0.16899 0.661458,-0.57509 0.661459,-0.57508 -0.396875,0.17821 -0.396875,0.17821 0.661458,-0.57509 0.661458,-0.57508 -0.396875,0.17487 -0.396875,0.17487 0.529167,-0.43517 0.529167,-0.43517 -0.0727,-0.26557 -0.0727,-0.26558 0.257864,0.15937 0.257864,0.15937 0.334069,-0.60272 0.33407,-0.60273 -0.07826,-0.26458 -0.07826,-0.26458 0.175632,0.17563 0.175633,0.17563 0.919666,-1.01796 0.919667,-1.01796 0.49592,0.0374 0.49592,0.0374 -0.132244,0.21398 -0.132244,0.21397 -0.190172,-0.11753 -0.190172,-0.11753 -0.04855,0.58665 -0.04855,0.58665 0.521591,0.0393 0.52159,0.0393 v -0.39605 -0.39605 l -0.330729,0.1987 -0.330729,0.1987 0.37352,-0.46019 0.373519,-0.46019 0.201628,0.32624 0.201627,0.32624 0.396614,-0.32916 0.396615,-0.32916 0.09538,0.61076 0.09538,0.61075 -1.860893,2.78029 -1.860892,2.78029 -0.514473,0.97384 -0.514472,0.97384 -0.219688,-0.13577 -0.219687,-0.13578 0.03789,0.21811 0.03789,0.2181 -0.03133,0.46302 -0.03133,0.46302 -0.330729,-0.0661 -0.330729,-0.0661 -0.0231,0.39687 -0.0231,0.39688 -0.204346,0.98987 -0.204347,0.98987 -0.219559,-0.13569 -0.219559,-0.1357 0.02165,0.46874 0.02165,0.46874 -0.319503,1.6846 -0.319503,1.6846 0.04538,2.61488 0.04537,2.61488 0.03803,0.79375 0.03803,0.79375 h 0.229296 0.229297 l -0.138381,0.52917 -0.13838,0.52916 h 0.21113 0.211131 l 0.204074,0.72761 0.204074,0.7276 -0.06079,0.35728 -0.0608,0.35728 0.327242,-0.20224 0.327242,-0.20225 -0.174224,0.45402 -0.174224,0.45402 0.195407,-0.12063 0.195407,-0.12064 0.8438,1.30319 0.843799,1.30318 -0.314633,-0.16484 -0.314632,-0.16485 0.849138,0.6991 0.849138,0.6991 0.699101,0.84914 0.6991,0.84914 -0.178314,-0.39687 -0.178315,-0.39688 0.709634,0.79375 0.709634,0.79375 -0.18095,-0.39687 -0.18095,-0.39688 0.376512,0.45891 0.376511,0.45891 0.172276,-0.17228 0.172276,-0.17227 v 0.29937 0.29937 l 0.561096,0.30029 0.5611,0.30029 -0.17984,-0.29098 -0.179835,-0.29098 h 0.129007 0.129008 l 0.45878,0.45878 0.45878,0.45877 0.28772,0.0126 0.28773,0.0126 1.51221,0.36241 1.51221,0.36241 -0.13768,0.22277 -0.13767,0.22276 0.60984,0.004 0.60984,0.004 4.36562,0.15919 4.36563,0.15918 2.77812,-0.43425 2.77813,-0.43424 3.27148,-0.92996 3.27148,-0.92996 2.51423,-1.17491 2.51424,-1.1749 0.21527,0.13304 0.21527,0.13305 0.19146,-0.30978 0.19145,-0.30978 -0.37161,0.19279 -0.37161,0.1928 0.51359,-0.4165 0.5136,-0.4165 0.41245,-0.0305 0.41245,-0.0305 0.46302,0.0471 0.46302,0.0471 v -0.25917 -0.25917 l -0.27443,-0.0915 -0.27443,-0.0915 0.76022,-0.44907 0.76022,-0.44908 0.90327,0.80121 0.90327,0.80121 -0.33072,-0.16603 -0.33073,-0.16603 v 0.46306 0.46306 l -0.35649,-0.48753 -0.35649,-0.48752 -0.21356,0.34554 -0.21356,0.34555 0.26137,-0.16154 0.26136,-0.16153 0,0.38104 v 0.38103 l -0.31097,-0.25809 -0.31098,-0.25808 -0.18807,0.18808 -0.18808,0.18807 0.15831,-0.41256 0.15832,-0.41257 -0.47506,-0.37312 -0.47506,-0.37312 0.27992,0.39688 0.27992,0.39687 -0.0443,0.57273 -0.0443,0.57273 0.42581,-0.15925 0.42581,-0.15924 -0.37243,0.45762 -0.37243,0.45763 -0.2758,-0.2758 -0.27579,-0.27579 h -0.36286 -0.36286 l 0.42091,0.4209 0.4209,0.42091 -0.64217,0.50513 -0.64218,0.50514 h -0.31731 -0.3173 l 0.14389,0.37498 0.1439,0.37498 -0.39391,0.15115 -0.39391,0.15116 0.17796,-0.28795 0.17796,-0.28795 -0.57604,0.30829 -0.57604,0.30829 -0.13924,0.36286 -0.13925,0.36286 -0.31947,-0.12259 -0.31948,-0.1226 -0.90475,0.80777 -0.90476,0.80777 -0.33438,-0.12831 -0.33437,-0.12832 -0.25174,0.44983 -0.25173,0.44983 -0.18364,-0.18363 -0.18363,-0.18364 -0.39949,0.39949 -0.39949,0.3995 -0.37651,-0.14448 -0.3765,-0.14448 0.14452,0.23383 0.14451,0.23383 -0.41923,0.16087 -0.41923,0.16088 -0.24071,-0.14877 -0.24071,-0.14876 v 0.22704 0.22705 l -0.9245,0.3343 -0.9245,0.33431 -0.307,-0.18974 -0.30701,-0.18974 0.21658,0.35042 0.21657,0.35043 -0.42318,-0.16239 -0.42319,-0.16239 -0.0832,0.23123 -0.0832,0.23123 -0.79375,0.0846 -0.79375,0.0846 -0.14571,0.19489 -0.14572,0.19489 -0.79229,0.0867 -0.79229,0.0867 -0.31877,0.197 -0.31876,0.19701 -0.27617,-0.17068 -0.27618,-0.17069 -0.39706,0.32953 -0.39706,0.32954 -1.55224,0.0211 -1.55224,0.0211 0.10214,0.16525 0.10213,0.16526 -1.38239,0.16606 -1.38239,0.16605 -2.24896,-0.0314 -2.24895,-0.0314 z m -11.430596,-0.98812 -0.384243,-0.24307 -0.25195,0.15571 -0.251951,0.15572 0.178891,-0.28945 0.17889,-0.28945 -0.534885,-0.016 -0.534885,-0.016 -0.529167,-0.0164 -0.529167,-0.0165 v -0.23983 -0.23984 l -0.396875,0.1523 -0.396875,0.15229 v -0.28459 -0.28458 l -0.440278,0.16895 -0.440279,0.16895 0.216576,-0.35043 0.216575,-0.35042 -0.317053,0.19595 -0.317054,0.19595 -0.385285,-0.31976 -0.385285,-0.31976 v 0.16083 0.16082 l -1.389063,-0.54724 -1.389062,-0.54725 -1.641533,-0.81667 -1.641532,-0.81668 0.13392,-0.21668 0.13392,-0.21669 -0.408386,0.15671 -0.408387,0.15671 -0.162246,-0.4228 -0.162247,-0.42281 -0.221086,0.13664 -0.221086,0.13664 -0.583851,-0.60118 -0.583851,-0.60118 0.221992,0.39687 0.221992,0.39688 -0.51381,-0.38544 -0.513809,-0.38544 -0.485981,-0.5406 -0.485981,-0.54061 0.209326,0.39296 0.209325,0.39296 -1.443136,-1.03951 -1.443137,-1.03951 -1.322917,-1.038 -1.322916,-1.038 0.0727,-0.25334 0.0727,-0.25335 -0.223776,0.13831 -0.223777,0.1383 -2.097883,-2.15931 -2.097883,-2.15931 0.371609,0.22947 0.37161,0.22947 -0.188787,-0.30546 -0.188787,-0.30547 h -0.340253 -0.340253 l -0.504028,-0.59075 -0.504028,-0.59075 0.529167,0.37621 0.529166,0.37621 -1.355183,-1.3347 -1.355183,-1.3347 -1.388702,-2.05797 -1.388702,-2.05796 0.362635,0.18724 0.362635,0.18725 -0.458908,-0.37651 -0.458908,-0.37651 0.172276,-0.17228 0.172276,-0.17228 H 61.43858 61.141053 l -0.693117,-1.18271 -0.693116,-1.18271 0.193677,-0.31338 0.193677,-0.31337 -0.266775,0.16487 -0.266774,0.16488 -0.30528,-0.67002 -0.305281,-0.67002 0.263561,0.16289 0.26356,0.16289 -0.156985,-0.4091 -0.156986,-0.40909 -0.199927,0.12356 -0.199927,0.12356 -0.463626,-1.02814 -0.463627,-1.02814 0.202992,-0.32845 0.202991,-0.32844 -0.286414,0.17701 -0.286415,0.17701 -0.168419,-0.53064 -0.168419,-0.53064 0.19025,-0.30783 0.190251,-0.30783 -0.350427,0.21658 -0.350427,0.21657 0.168951,-0.44028 0.168951,-0.44028 h -0.247976 -0.247975 l 0.16895,-0.44027 0.168951,-0.44028 -0.270462,0.16715 -0.270462,0.16716 -0.723965,-2.36008 -0.723966,-2.36008 0.196595,-0.31809 0.196595,-0.3181 -0.305464,0.18879 -0.305464,0.18878 -0.04717,-0.87551 -0.04717,-0.87551 6.19e-4,-0.44986 6.19e-4,-0.44987 -0.191272,0.11821 -0.191272,0.11822 -0.184334,-1.83552 -0.184334,-1.83552 0.198454,-0.3211 0.198454,-0.32111 -0.267912,0.16558 -0.267913,0.16558 -0.167962,-1.77835 -0.167962,-1.77834 2.9e-4,-3.175 2.9e-4,-3.175 0.270753,-2.38125 0.270752,-2.38125 0.653484,-2.91042 0.653483,-2.91041 0.265867,-0.0888 0.265867,-0.0887 -0.155527,-0.25165 -0.155526,-0.25165 0.458353,-1.51169 0.458354,-1.51169 0.361579,-0.29711 0.361579,-0.29711 -0.181851,-0.4739 -0.181851,-0.47389 0.306516,0.18943 0.306515,0.18944 -0.157568,-0.41062 -0.157568,-0.41061 h 0.284586 0.284587 l -0.16895,-0.44028 -0.168951,-0.44028 0.306516,0.18944 0.306515,0.18943 -0.157568,-0.41061 -0.157569,-0.41062 h 0.308506 0.308506 l -0.148765,-0.24071 -0.148765,-0.2407 0.160874,-0.41924 0.160874,-0.41923 0.27774,0.17165 0.277739,0.17166 -0.17403,-0.28159 -0.174031,-0.28159 0.160875,-0.41923 0.160874,-0.41923 0.233829,0.14451 0.233828,0.14452 -0.174224,-0.45402 -0.174224,-0.45402 0.350427,0.21657 0.350426,0.21658 -0.17403,-0.28159 -0.174031,-0.28159 0.160875,-0.41923 0.160874,-0.41923 0.209135,0.12925 0.209135,0.12925 0.156985,-0.40909 0.156985,-0.4091 -0.327698,0.16899 -0.327699,0.169 0.633365,-0.51583 0.633365,-0.51582 -0.17466,-0.2826 -0.17466,-0.28261 0.30978,-0.19145 0.309779,-0.19146 -0.214052,0.34635 -0.214053,0.34634 0.323502,-0.19993 0.323501,-0.19994 -0.164313,-0.42819 -0.164313,-0.4282 0.188966,0.18897 0.188967,0.18897 0.631488,-0.92932 0.631488,-0.92932 -0.149328,-0.24162 -0.149328,-0.24162 0.309779,-0.19145 0.30978,-0.19145 -0.188787,0.30546 -0.188787,0.30546 0.311057,0 0.311057,0 -0.138312,-0.5289 -0.138311,-0.5289 0.30589,-0.19171 0.30589,-0.19171 0.38822,-0.007 0.38822,-0.007 0.334563,-0.66145 0.334564,-0.66146 0.359054,0.0679 0.359054,0.068 0.490829,-0.54236 0.490828,-0.54236 -0.448187,0.17199 -0.448186,0.17198 v 0.23628 0.23628 h -0.207887 -0.207887 v -0.51027 -0.51027 l 0.189212,0.0472 0.189212,0.0472 0.416199,-0.52916 0.416199,-0.52917 -0.148146,0.42888 -0.148147,0.42888 0.408045,0.15658 0.408044,0.15658 0.26862,-0.50192 0.268619,-0.50192 v -0.1653 -0.1653 l -0.246301,0.15222 -0.246301,0.15222 -0.166189,-0.26889 -0.166189,-0.2689 0.38772,0 h 0.38772 l -0.146587,-0.59532 -0.146588,-0.59531 0.216032,0.19902 0.216032,0.19901 0.529973,-0.4636 0.529972,-0.4636 -0.193387,0.33073 -0.193387,0.33073 0.346344,0.009 0.346345,0.009 -0.646753,0.3582 -0.646753,0.35819 0.495568,0.0954 0.495568,0.0954 -0.463027,0.46303 -0.463026,0.46302 h 0.275032 l 0.275032,0 0.422167,-0.72761 0.422166,-0.7276 -0.140829,0.46302 -0.140829,0.46302 0.234231,0 h 0.23423 l 0.133452,-0.33073 0.133453,-0.33073 0.02089,0.31512 0.02089,0.31511 -0.330729,0.21 -0.330729,0.21 -0.132292,0.0269 -0.132292,0.0269 -0.433782,0.19267 -0.433782,0.19267 0.137999,0.52772 0.138,0.52771 -0.564113,0.14751 -0.564114,0.14752 0.0041,0.16758 0.0041,0.16758 0.223824,0.3531 0.223824,0.35309 0.137368,-0.52529 0.137368,-0.5253 0.569857,-0.30498 0.569857,-0.30497 -0.965337,1.27092 -0.965336,1.27093 -0.26004,0.0968 -0.26004,0.0968 0.270258,-0.50498 0.270259,-0.50499 -0.523353,-0.0394 -0.523353,-0.0394 -0.151273,0.39421 -0.151274,0.39421 0.486219,0.35553 0.486219,0.35554 -0.353139,0.4255 -0.353139,0.42551 -0.496769,0 h -0.49677 v -0.30868 -0.30868 l -0.169995,0.16999 -0.169995,0.17 0.332266,0.40035 0.332265,0.40036 0.236873,-0.1464 0.236872,-0.14639 -0.76992,1.27379 -0.769921,1.27378 -1.352288,2.74068 -1.352288,2.74068 -0.908491,2.81557 -0.90849,2.81557 -0.434323,1.71511 -0.434323,1.71511 -0.373343,2.12135 -0.373343,2.12135 -3.61e-4,5.04696 -3.62e-4,5.04695 0.525128,2.91632 0.525129,2.91631 1.29841,3.94298 1.298411,3.94298 0.812809,1.85208 0.812808,1.85209 0.02118,-0.26459 0.02118,-0.26458 0.528009,1.0004 0.52801,1.00041 -0.148393,0.2401 -0.148393,0.24011 0.381073,0.2147 0.381073,0.2147 0.08751,0.39591 0.08751,0.39592 0.396875,0.32327 0.396875,0.32327 -0.249007,0.008 -0.249007,0.008 0.513591,0.4165 0.51359,0.4165 -0.396875,-0.17154 -0.396875,-0.17153 0.529167,0.43517 0.529166,0.43517 -0.06615,0.24591 -0.06615,0.24591 h 0.280198 0.280198 l -0.152745,0.24714 -0.152746,0.24715 0.997027,1.00173 0.997026,1.00172 -0.51094,-0.38898 -0.51094,-0.38897 2.89219,3.00275 2.89219,3.00275 -0.08819,0.30454 -0.08819,0.30454 0.196142,-0.19614 0.196142,-0.19614 0.35216,0.29226 0.35216,0.29227 -0.170259,0.27549 -0.170259,0.27548 0.284277,-0.17569 0.284278,-0.17569 0.550353,0.69966 0.550353,0.69966 v -0.16623 -0.16622 l 1.256771,0.96356 1.256771,0.96357 -0.0727,0.24498 -0.0727,0.24497 0.237852,-0.147 0.237853,-0.147 0.678415,0.62873 0.678415,0.62874 0.127185,-0.12719 0.127184,-0.12718 0.27867,0.5207 0.27867,0.5207 0.417967,0.16039 0.417967,0.16039 -0.177963,-0.28795 -0.177962,-0.28795 0.561096,0.30029 0.561095,0.30028 v 0.1386 0.1386 l -0.305463,-0.18879 -0.305464,-0.18878 0.191454,0.30978 0.191455,0.30978 0.249496,-0.1542 0.249496,-0.1542 1.453575,0.83165 1.453574,0.83165 0.289419,0.54079 0.289419,0.54078 -0.317377,-0.19615 -0.317377,-0.19615 0.300289,0.5611 0.300289,0.56109 h 0.138598 0.138597 l -0.163521,-0.26458 -0.163522,-0.26458 h 0.117477 0.117477 l 0.454749,0.69403 0.454749,0.69404 -0.317799,-0.19641 -0.317799,-0.19642 1.204691,1.25729 1.20469,1.25728 -0.01963,0.16332 -0.01963,0.16332 0.03133,0.35904 0.03133,0.35904 0.366498,-0.14064 0.366497,-0.14064 0.757982,0.83994 0.757981,0.83993 -0.926041,-0.79375 -0.926042,-0.79375 0.777287,0.86009 0.777287,0.86008 0.4074,-0.0663 0.407401,-0.0663 0.0059,0.35206 0.0059,0.35206 0.513591,0.37554 0.51359,0.37555 -0.249007,-0.004 -0.249007,-0.004 z m 44.966536,-10.70121 v -0.35244 l -0.59531,0.0453 -0.59532,0.0454 -0.32781,-0.24375 -0.32782,-0.24375 0.14766,-0.23892 0.14766,-0.23892 0.25062,0.15488 0.25062,0.15489 -0.17749,0.28719 -0.17749,0.28718 0.29391,-0.18165 0.29391,-0.18164 -0.13878,-0.36164 -0.13877,-0.36164 0.34877,-0.20147 0.34876,-0.20148 -0.17638,0.19676 -0.17639,0.19676 0.44097,0.46464 0.44097,0.46463 0.39688,-0.28824 0.39687,-0.28825 -0.34177,0.43729 -0.34177,0.43729 0.32839,0.10947 0.3284,0.10946 -0.44965,0.17254 -0.44964,0.17255 z m -36.24792,-4.91295 -4.101041,-0.19094 -0.08176,-0.0417 -0.08176,-0.0417 0.161648,-0.26156 0.161649,-0.26155 -0.344471,0.13203 -0.344471,0.13202 -0.733324,-0.68023 -0.733324,-0.68023 0.178892,-0.28946 0.178891,-0.28945 -0.28414,0.17561 -0.284141,0.17561 -0.271221,-0.86234 -0.271221,-0.86233 -0.04272,-0.79375 -0.04272,-0.79375 0.02804,-1.27238 0.02804,-1.27239 0.292929,0.18104 0.29293,0.18104 -0.17627,-0.55538 -0.17627,-0.55537 0.445954,-1.58937 0.445954,-1.58937 0.2761,0.17064 0.276099,0.17064 -0.168951,-0.44028 -0.16895,-0.44028 h 0.247975 0.247976 l -0.15144,-0.39464 -0.151439,-0.39465 0.422807,-0.16224 0.422807,-0.16225 -0.146387,-0.23686 -0.146387,-0.23686 1.007803,-0.0515 1.007802,-0.0515 0.661458,-0.0468 0.661459,-0.0468 0.457217,-0.19231 0.45721,-0.19231 1.06265,-0.0401 1.06264,-0.0401 0.001,-0.22929 0.002,-0.22928 0.65345,0.12492 0.65345,0.12491 -0.11999,-0.19415 -0.11999,-0.19414 0.72331,-0.14598 0.72331,-0.14598 0.50643,-0.19578 0.50642,-0.19579 -0.16769,0.27133 -0.16768,0.27133 0.65036,-0.12433 0.65037,-0.12433 -0.18,-0.30047 -0.17999,-0.30047 0.51381,0.39244 0.51381,0.39243 0.77729,0.78163 0.77729,0.78162 -0.31427,0.10476 -0.31427,0.10475 v 0.26037 0.26036 l 0.51444,-0.16328 0.51445,-0.16327 0.44203,0.67461 0.44202,0.67462 h 0.36645 0.36644 v 0.24253 0.24254 l -0.33073,0.13345 -0.33073,0.13345 0.31183,0.0209 0.31183,0.0209 0.41578,-0.41578 0.41577,-0.41577 0.0331,0.15119 0.0331,0.15119 0.0331,0.25949 0.0331,0.25949 0.59532,0.41697 0.59531,0.41697 v -0.27958 -0.27959 h 0.26156 0.26156 l 0.52658,0.45087 0.52658,0.45088 -0.28975,0.17907 -0.28976,0.17908 0.28732,0.49453 0.28732,0.49453 0.008,-0.29987 0.008,-0.29987 0.49817,-0.13028 0.49817,-0.13027 0.30143,1.88535 0.30143,1.88536 -0.0345,2.18493 -0.0346,2.18494 -0.23285,0.14391 -0.23285,0.14391 0.14924,-0.47677 0.14924,-0.47676 -0.29888,0.46512 -0.29888,0.46511 0.15093,0.24421 0.15092,0.24421 -0.30978,0.19145 -0.30978,0.19145 0.19614,-0.37161 0.19613,-0.3716 -0.51322,0.62991 -0.51322,0.62991 -4.86755,0.0657 -4.86756,0.0657 z m -28.288001,-23.31741 -0.639043,-0.25547 -0.64116,-0.64116 -0.641159,-0.64116 0.196603,-0.31811 0.196604,-0.31811 -0.293746,0.18155 -0.293747,0.18154 -0.01681,-9.6469 -0.01681,-9.6469 0.287717,-0.17782 0.287717,-0.17782 -0.131218,-0.34194 -0.131217,-0.34195 0.664743,-0.62348 0.664743,-0.62348 0.535692,0.0877 0.535692,0.0877 -0.176829,-0.28612 -0.176828,-0.28611 0.743219,0.004 0.743219,0.004 -0.396875,0.25648 -0.396875,0.25648 0.529167,0.008 0.529166,0.008 -0.396875,0.25648 -0.396875,0.25648 0.277813,0.004 0.277812,0.004 0.297544,-0.29754 0.297544,-0.29755 1.739748,0.18632 1.739748,0.18631 v 0.3692 0.3692 l 0.727604,-0.0915 0.727604,-0.0915 -0.302316,0.11207 -0.302317,0.11207 0.134738,0.51523 0.134738,0.51524 h 0.333704 0.333704 l 1.003708,0.41938 1.003707,0.41937 -0.344896,0.21316 -0.344896,0.21316 0.564126,0.17904 0.564125,0.17905 v 0.65193 0.65194 l 0.423578,0.16254 0.423578,0.16254 0.258024,-0.36928 0.258023,-0.36929 0.134197,0.33073 0.134198,0.33073 h 0.376968 0.376969 l 0.423461,1.05834 0.423461,1.05833 h 0.350317 0.350317 l 0.167951,-0.52917 0.167951,-0.52916 h 0.246754 0.246754 v 0.26458 0.26458 h -0.264584 -0.264583 v 0.52917 0.52916 h 0.40349 0.403489 l 0.15875,-0.79374 0.15875,-0.79375 h 0.306393 0.306394 l -0.05339,0.7276 -0.05339,0.7276 -0.02555,0.13229 -0.02555,0.1323 -0.25648,-0.39688 -0.256481,-0.39687 -0.0041,0.31511 -0.0041,0.31512 0.243253,0.15033 0.243253,0.15034 0.418205,-0.4182 0.418206,-0.41821 -0.0059,0.21734 -0.0059,0.21733 -0.546244,0.66146 -0.546243,0.66146 0.196132,-0.37161 0.196132,-0.37161 -0.30978,0.19146 -0.309779,0.19145 0.159385,0.25789 0.159386,0.25789 -0.319759,0.38529 -0.319758,0.38528 h 0.170788 0.170788 l -0.417351,0.63696 -0.417351,0.63696 0.25448,0.15727 0.254479,0.15728 -0.418732,1.30941 -0.418732,1.30941 -0.259126,-0.16015 -0.259127,-0.16015 0.160098,0.25904 0.160097,0.25905 -0.37772,1.56777 -0.377721,1.56778 -0.178579,2.71198 -0.178579,2.71197 h -0.239991 -0.23999 l 0.163521,0.26459 0.163522,0.26458 -6.034886,-0.0168 -6.034886,-0.0168 z"
         id="path7" /></g></g></svg>
