<?xml version="1.0" encoding="UTF-8" standalone="no"?>
<!-- Created with Inkscape (http://www.inkscape.org/) -->

<svg
   width="210mm"
   height="297mm"
   viewBox="0 0 210 297"
   version="1.1"
   id="svg1"
   xml:space="preserve"
   inkscape:version="1.4.3 (0d15f75042, 2025-12-25)"
   sodipodi:docname="Dawa-Mashinani.svg"
   xmlns:inkscape="http://www.inkscape.org/namespaces/inkscape"
   xmlns:sodipodi="http://sodipodi.sourceforge.net/DTD/sodipodi-0.dtd"
   xmlns="http://www.w3.org/2000/svg"
   xmlns:svg="http://www.w3.org/2000/svg"><sodipodi:namedview
     id="namedview1"
     pagecolor="#ffffff"
     bordercolor="#000000"
     borderopacity="0.25"
     inkscape:showpageshadow="2"
     inkscape:pageopacity="0.0"
     inkscape:pagecheckerboard="0"
     inkscape:deskcolor="#d1d1d1"
     inkscape:document-units="mm"
     inkscape:zoom="0.41068322"
     inkscape:cx="396.89958"
     inkscape:cy="561.25984"
     inkscape:window-width="1366"
     inkscape:window-height="672"
     inkscape:window-x="0"
     inkscape:window-y="0"
     inkscape:window-maximized="1"
     inkscape:current-layer="layer1" /><defs
     id="defs1" /><g
     inkscape:label="Layer 1"
     inkscape:groupmode="layer"
     id="layer1"><path
       style="fill:#000000"
       d="m 71.4375,183.48854 v -2.11667 h 1.025937 1.025936 l 0.283248,0.34129 0.283248,0.3413 -0.01967,1.31235 -0.01967,1.31235 0.09955,0.38117 0.09955,0.38116 -0.443929,0.0976 -0.44393,0.0976 -0.08524,-0.74106 -0.08524,-0.74107 -0.463021,-0.0878 -0.463021,-0.0878 v 0.81316 0.81315 H 71.834375 71.4375 Z m 1.756403,-0.39688 0.152295,-0.39687 -0.150583,-0.39242 -0.150584,-0.39241 -0.40689,0.15614 -0.406891,0.15614 v 0.45676 0.45676 l 0.176389,0.17639 0.176389,0.17639 h 0.22879 0.22879 z m 1.954232,2.18282 0.0065,-0.33073 0.260256,-1.19063 0.260255,-1.19062 0.135192,-0.59532 0.135193,-0.59531 h 0.76995 0.769951 l 0.305466,1.52136 0.305466,1.52135 0.13885,0.59531 0.138851,0.59532 h -0.397251 -0.39725 l -0.152295,-0.39688 -0.152296,-0.39687 h -0.669762 -0.669762 v 0.39687 0.39688 h -0.396875 -0.396875 z m 1.845615,-1.90262 v -0.91042 l -0.234949,-0.14521 -0.23495,-0.14521 -0.130421,0.8572 -0.130421,0.85719 0.116402,0.19844 0.116402,0.19844 h 0.248969 0.248968 z m 2.38125,0.11668 v -2.11667 h 1.190625 1.190625 v 0.36748 0.36748 l -0.330729,-0.0123 -0.330729,-0.0123 -0.463021,0.0417 -0.463021,0.0417 v 0.52917 0.52917 h 0.661459 0.661458 v 0.2359 0.2359 l -0.661458,0.16601 -0.661459,0.16602 v 0.78871 0.78871 H 79.771875 79.375 Z m 3.704167,0 v -2.11667 h 0.396875 0.396875 v 2.11667 2.11667 h -0.396875 -0.396875 z m 2.033984,1.94579 -0.181901,-0.1819 v -1.95968 -1.95968 l 0.460982,0.0888 0.460983,0.0888 0.138823,0.79051 0.138823,0.79052 0.358336,-0.85989 0.358335,-0.8599 h 0.502445 0.502445 l -0.547248,1.0727 -0.547248,1.07269 0.541871,0.87677 0.54187,0.87676 v 0.16721 0.16721 h -0.39008 -0.390081 l -0.410464,-0.79375 -0.410464,-0.79375 h -0.202073 -0.202073 l 0.01043,0.70177 0.01043,0.70178 -0.28112,0.0975 -0.28112,0.0975 z m 4.051433,-1.94579 v -2.11667 h 0.396875 0.396875 v 2.11667 2.11667 h -0.396875 -0.396875 z m 1.852083,1.71979 v -0.43568 l 0.463021,0.0892 0.463021,0.0892 -0.05217,0.26096 -0.05217,0.26096 -0.41085,0.0855 -0.410851,0.0856 z m 4.875493,0.19439 -0.283883,-0.19439 -0.170834,-0.46302 -0.170835,-0.46302 h 0.372957 0.372956 l 0.163521,0.26458 0.163522,0.26459 h 0.38126 0.38126 v -1.7198 -1.71979 h 0.396875 0.396875 v 1.84278 1.84277 l -0.511773,0.27389 -0.511772,0.2739 -0.348123,-0.004 -0.348124,-0.004 z m 3.180819,-0.13411 -0.146049,-0.3806 0.07976,-1.69192 0.07977,-1.69193 h 0.396875 0.396875 v 1.96233 1.96233 l -0.33059,0.11019 -0.33059,0.1102 z m 1.997851,-1.78007 v -2.11667 h 0.81115 0.81114 l 0.47483,0.25412 0.47483,0.25413 0.0117,1.86254 0.0117,1.86255 h -0.35401 -0.35402 l -0.0837,-0.72535 -0.0837,-0.72534 -0.46303,-0.0878 -0.46302,-0.0878 v 0.81316 0.81315 h -0.39687 -0.39688 z m 1.80434,-0.73031 0.0846,-0.59261 h -0.54757 -0.54757 v 0.68086 0.68086 l 0.46302,-0.0883 0.46303,-0.0882 z m 1.9063,2.51625 0.006,-0.33073 0.26025,-1.19063 0.26026,-1.19062 0.13519,-0.59532 0.13519,-0.59531 h 0.76995 0.76995 l 0.30547,1.52136 0.30547,1.52135 0.13885,0.59531 0.13885,0.59532 h -0.39725 -0.39725 l -0.1523,-0.39688 -0.15229,-0.39687 h -0.66977 -0.66976 v 0.39687 0.39688 h -0.39687 -0.39688 z m 1.84561,-1.90262 v -0.91042 l -0.23495,-0.14521 -0.23494,-0.14521 -0.13043,0.8572 -0.13042,0.85719 0.1164,0.19844 0.11641,0.19844 h 0.24897 0.24896 z m 2.38125,0.0991 v -2.13424 l 0.72646,0.0837 0.72645,0.0837 0.26541,1.45521 0.26542,1.45521 0.0797,-1.52135 0.0797,-1.52136 h 0.38367 0.38367 v 2.13424 2.13424 l -0.72447,-0.0837 -0.72447,-0.0837 -0.1604,-0.99511 -0.16039,-0.9951 -0.17347,-0.17347 -0.17347,-0.17347 v 1.23472 1.23473 h -0.39687 -0.39688 z m 3.96875,0.0176 v -2.11667 h 0.39688 0.39687 v 2.11667 2.11667 h -0.39687 -0.39688 z m 2.11667,1.71979 v -0.39687 h 0.39688 0.39687 v 0.39687 0.39688 h -0.39687 -0.39688 z m 4.23333,-1.71979 v -2.11667 h 0.76327 0.76326 l 0.18226,1.45878 0.18227,1.45878 0.21022,-0.12992 0.21023,-0.12993 0.17627,-1.32885 0.17628,-1.32886 h 0.78464 0.78464 v 2.11667 2.11667 h -0.52917 -0.52917 l -0.0307,-1.38907 -0.0307,-1.38906 -0.084,0.39688 -0.084,0.39687 -0.1619,0.99219 -0.1619,0.99219 h -0.48887 -0.48887 l -0.1606,-0.41852 -0.1606,-0.41851 -0.004,-0.70597 -0.004,-0.70596 -0.25648,-0.39688 -0.25648,-0.39687 -0.004,1.52135 -0.004,1.52136 h -0.39687 -0.39688 z m 5.29167,0 v -2.11667 h 0.39688 0.39687 v 1.85209 1.85208 h 0.66146 0.66146 v 0.26458 0.26459 h -1.05834 -1.05833 z m 3.175,0 v -2.11667 h 0.39688 0.39687 v 2.11667 2.11667 h -0.39687 -0.39688 z m 2.11667,0 v -2.11667 h 0.63315 0.63315 l 0.1606,0.41852 0.1606,0.41851 0.0375,0.70597 0.0376,0.70596 0.16089,-1.05577 0.16089,-1.05577 0.47454,-0.0903 0.47454,-0.0903 -0.0777,2.07214 -0.0777,2.07214 -0.6881,0.0799 -0.6881,0.0799 -0.26933,-1.40282 -0.26932,-1.40283 -0.0348,1.38906 -0.0348,1.38907 h -0.39688 -0.39687 z m 3.96875,1.8091 v -0.30757 l 0.83672,-1.30391 0.83671,-1.30391 -0.37369,-0.23655 -0.3737,-0.23656 -0.47864,-0.004 -0.47863,-0.004 0.16352,-0.26458 0.16352,-0.26459 h 1.17501 1.17501 v 0.41535 0.41535 l -0.79375,1.15368 -0.79375,1.15367 v 0.28306 0.28306 h 0.79375 0.79375 v 0.26458 0.26459 h -1.32292 -1.32291 z m 3.96875,-1.8091 v -2.11667 h 0.39687 0.39688 v 2.11667 2.11667 h -0.39688 -0.39687 z M 53.975,172.77291 v -4.10104 h 2.004727 2.004728 l 0.773397,0.7734 0.773398,0.7734 v 2.51225 2.51226 l -0.164354,0.4283 -0.164355,0.4283 -0.748548,0.38709 -0.748548,0.38709 H 55.840222 53.975 Z m 3.647661,0.0612 0.07579,-2.58465 -0.604953,-0.22485 -0.604954,-0.22486 -0.330729,0.12583 -0.330729,0.12583 v 2.76659 2.76658 l 0.859896,-0.0829 0.859896,-0.0829 z m 3.496089,3.83963 v -0.20023 l 0.637277,-2.90863 0.637278,-2.90862 0.17076,-1.00444 0.170761,-1.00445 1.628551,0.0784 1.628551,0.0784 0.725909,3.57188 0.725908,3.57187 0.0125,0.46302 0.0125,0.46303 h -0.772728 -0.772727 l -0.177306,-0.80727 -0.177305,-0.80727 -1.23278,0.0797 -1.232779,0.0797 -0.08372,0.7276 -0.08372,0.72761 H 62.027217 61.11875 Z m 4.137093,-3.17321 -0.1319,-0.46302 -0.307436,-1.54964 -0.307435,-1.54964 -0.20266,0.22672 -0.202659,0.22672 -0.301877,1.56549 L 63.5,173.52263 v 0.22045 0.22046 h 0.943871 0.943872 z m 4.38619,-0.13229 -0.594761,-3.50573 -0.158662,-0.59532 -0.158661,-0.59531 h 0.909229 0.909229 l 0.350101,2.18281 0.350102,2.18282 0.209966,0.52916 0.209965,0.52917 0.01877,-0.26458 0.01877,-0.26459 0.267676,-1.71979 0.267675,-1.71979 0.148223,-0.7276 0.148223,-0.72761 h 1.009983 1.009983 l 0.30997,2.31511 0.30997,2.3151 0.155359,0.39688 0.155359,0.39687 0.348027,-1.85208 0.348026,-1.85209 0.152003,-0.85989 0.152004,-0.8599 h 0.781761 0.781761 v 0.30134 0.30133 l -0.532145,3.2044 -0.532144,3.20439 -0.138066,0.6101 -0.138066,0.6101 -1.115727,-0.0809 -1.115728,-0.0809 -0.329525,-2.38125 -0.329526,-2.38125 -0.225972,-0.52819 -0.225972,-0.52819 -0.187102,1.32194 -0.187101,1.32194 -0.276749,1.65365 -0.276749,1.65365 h -1.102359 -1.102358 z m 9.732967,3.3055 v -0.20023 l 0.637278,-2.90863 0.637277,-2.90862 0.170761,-1.00444 0.17076,-1.00445 1.621394,0.0784 1.621393,0.0784 0.741407,3.57188 0.741406,3.57187 0.0042,0.46302 0.0042,0.46303 h -0.772727 -0.772728 l -0.174336,-0.79375 -0.174337,-0.79375 h -1.301894 -1.301894 v 0.79375 0.79375 H 80.301042 79.375 Z m 4.137093,-3.17321 -0.1319,-0.46302 -0.307435,-1.54964 -0.307435,-1.54964 -0.20266,0.22672 -0.20266,0.22672 -0.301876,1.56549 -0.301877,1.56548 v 0.22045 0.22046 h 0.943872 0.943871 z m 9.092074,-0.72761 v -4.10104 h 1.434186 1.434186 l 0.137663,0.72761 0.137663,0.7276 0.324592,2.3269 0.324591,2.32691 0.19059,0.11779 0.190589,0.11779 0.170744,-1.25407 0.170744,-1.25407 0.292068,-1.91823 0.292069,-1.91823 h 1.418908 1.41891 v 3.83646 3.83646 l 0.0661,0.19844 0.0661,0.19843 -0.859897,0.0829 -0.859896,0.0829 -0.02089,-3.25791 -0.02089,-3.25791 -0.139146,0.34781 -0.139146,0.34782 -0.438262,2.82718 -0.438262,2.82719 -1.099184,0.0803 -1.099183,0.0803 -0.134025,-0.47714 -0.134026,-0.47715 -0.316262,-2.38125 -0.316262,-2.38125 -0.225437,-0.39687 -0.225437,-0.39688 -0.008,3.24115 -0.008,3.24115 h -0.79375 -0.79375 z m 9.911123,3.50573 0.13162,-0.59531 0.54836,-2.51354 0.54835,-2.51354 0.1939,-0.92604 0.1939,-0.92605 1.57967,-0.0771 1.57967,-0.0771 0.7678,3.78125 0.7678,3.78125 0.11929,0.33073 0.1193,0.33073 h -0.92128 -0.92127 l -0.15875,-0.79375 -0.15875,-0.79375 h -1.20386 -1.20385 l -0.15875,0.79375 -0.15875,0.79375 h -0.89801 -0.89801 z m 3.96645,-3.30729 -0.16931,-0.99219 -0.24975,-0.99218 -0.24974,-0.99219 h -0.1119 -0.11189 l -0.24975,0.99219 -0.24974,0.99218 -0.16932,0.99219 -0.16932,0.99219 h 0.95002 0.95002 z m 5.30472,3.59708 -0.52917,-0.28943 -0.33073,-0.41455 -0.33073,-0.41455 v -0.4786 -0.47859 h 0.77592 0.77593 l 0.17273,0.54424 0.17274,0.54424 0.83728,-0.0812 0.83728,-0.0812 v -0.66146 -0.66146 l -1.3601,-0.66146 -1.36009,-0.66146 -0.42584,-0.36312 -0.42585,-0.36313 v -1.11722 -1.11722 l 0.5576,-0.50403 0.5576,-0.50403 1.53645,0.009 1.53644,0.009 0.54892,0.65256 0.54893,0.65257 -0.0633,0.52917 -0.0633,0.52916 -0.57859,0.0824 -0.57859,0.0824 -0.44403,-0.67767 -0.44403,-0.67767 h -0.60272 -0.60272 l -0.1606,0.41851 -0.1606,0.41852 v 0.23913 0.23914 l 1.53719,0.77597 1.53718,0.77597 0.28252,0.35231 0.28252,0.35232 0.18869,0.61482 0.18869,0.61482 -0.31358,0.75707 -0.31359,0.75707 -0.80825,0.28176 -0.80825,0.28176 -0.82041,-0.008 -0.82041,-0.008 z m 6.43819,0.0451 -0.0882,-0.26048 0.0797,-3.84057 0.0797,-3.84057 h 0.76807 0.76806 l 0.0782,1.78594 0.0782,1.78594 h 0.92604 0.92605 l 0.0782,-1.78594 0.0782,-1.78594 h 0.78166 0.78166 v 4.10104 4.10105 h -0.79375 -0.79375 v -1.7198 -1.71979 h -1.05834 -1.05833 v 1.71979 1.7198 h -0.7717 -0.7717 z m 7.71702,-3.84058 v -4.10104 l 0.85989,-3.8e-4 0.8599,-3.8e-4 -0.0791,4.10142 -0.0791,4.10143 h -0.78081 -0.78081 z m 3.96875,-0.0138 v -4.11487 l 1.38573,0.08 1.38573,0.08 0.4342,2.59163 0.43419,2.59163 0.16445,0.16445 0.16445,0.16445 v -2.82223 -2.82222 h 0.79375 0.79375 v 4.10104 4.10105 h -1.30509 -1.30509 l -0.13312,-0.46303 -0.13311,-0.46302 -0.31712,-2.11666 -0.31712,-2.11667 -0.20928,-0.23158 -0.20928,-0.23158 -0.008,2.48054 -0.008,2.48054 -0.0121,0.33073 -0.0121,0.33073 h -0.79375 -0.79375 z m 7.95,3.65184 0.0125,-0.46302 0.72591,-3.57187 0.72591,-3.57188 1.62855,-0.0784 1.62855,-0.0784 0.17425,1.00445 0.17425,1.00444 0.63379,2.99773 0.63379,2.99773 v 0.12788 0.12789 l -0.8495,-0.0829 -0.8495,-0.0829 -0.15334,-0.66145 -0.15333,-0.66146 -1.22213,-0.0797 -1.22214,-0.0797 -0.1773,0.80727 -0.17731,0.80727 h -0.77272 -0.77273 z m 3.95625,-2.82408 v -0.37669 l -0.30892,-1.40925 -0.30891,-1.40925 -0.18116,-0.21226 -0.18117,-0.21227 -0.32854,1.66748 -0.32854,1.66747 -0.0991,0.33073 -0.0991,0.33073 h 0.91774 0.91774 z m 4.7625,-0.81394 v -4.10104 h 1.31093 1.31092 l 0.15749,0.99219 0.15748,0.99219 0.31753,1.71979 0.31752,1.71979 0.1323,-2.64583 0.13229,-2.64584 0.85989,-0.0829 0.8599,-0.0829 v 4.1178 4.11781 h -1.42477 -1.42477 l -0.30002,-2.05053 -0.30001,-2.05052 -0.23685,-0.79375 -0.23685,-0.79375 -0.0227,2.84427 -0.0227,2.84428 h -0.79375 -0.79375 z m 7.67292,0 v -4.10104 h 0.92604 0.92604 v 4.10104 4.10105 h -0.92604 -0.92604 z m -51.0158,-9.01226 -1.40642,-0.37848 -1.10755,-0.64907 -1.107538,-0.64906 -1.079157,-1.06847 -1.079156,-1.06848 -0.697664,-1.3923 -0.697664,-1.39229 -0.174051,-1.75204 -0.174051,-1.75204 0.311856,-1.81983 0.311855,-1.81984 0.934488,-1.85209 0.934488,-1.85208 0.873848,-1.05833 0.873847,-1.05834 0.492559,-0.54153 0.49256,-0.54153 2.75672,-2.21969 2.75673,-2.21968 0.9017,-0.81066 0.9017,-0.81066 0.77335,-1.106 0.77334,-1.106 v -0.18291 -0.18291 l -1.38906,1.18013 -1.38906,1.18014 -2.51354,1.85948 -2.51354,1.85948 -1.17916,0.98604 -1.179153,0.98604 -1.301377,1.62155 -1.301376,1.62155 0.125819,-2.6385 0.125818,-2.6385 0.73684,-1.55713 0.73684,-1.55713 1.496489,-1.48558 1.4965,-1.48558 4.07554,-2.11667 4.07554,-2.11666 1.53594,-1.53128 1.53594,-1.53127 v -0.43987 -0.43987 l 0.24447,0.25135 0.24447,0.25135 0.57669,1.45521 0.5767,1.45521 0.13794,2.97053 0.13794,2.97054 -0.6936,2.22464 -0.69361,2.22464 -1.1761,1.59762 -1.17611,1.59762 -1.4045,1.04707 -1.40449,1.04708 -1.32292,0.59037 -1.32292,0.59037 -1.85208,0.49492 -1.85208,0.49491 -0.79375,0.009 -0.79375,0.009 -0.32807,0.20835 -0.328059,0.20835 -0.664125,1.63443 -0.664125,1.63442 0.0026,2.05578 0.0026,2.05577 0.62858,1.34995 0.628581,1.34995 0.949949,0.94995 0.94995,0.94995 1.26315,0.57271 1.26316,0.5727 1.71979,0.12787 1.7198,0.12788 2.51354,-0.54642 2.51354,-0.54641 2.43683,-1.22273 2.43683,-1.22273 2.01376,-1.71823 2.01376,-1.71823 1.20088,-1.5464 1.20089,-1.5464 0.40038,-0.74483 0.40038,-0.74483 0.73282,-1.4552 0.73282,-1.45521 0.62366,-2.24896 0.62366,-2.24896 -0.006,-3.83646 -0.006,-3.83646 -0.75438,-2.38125 -0.75439,-2.38125 -0.73633,-1.46566 -0.73634,-1.46567 -1.56485,-2.10621 -1.56485,-2.10621 -1.30372,-1.04936 -1.30372,-1.04936 -0.1323,-0.17318 -0.13229,-0.17318 -1.71979,-1.04152 -1.71979,-1.04151 -1.45521,-0.57588 -1.45521,-0.57587 -2.24896,-0.53165 -2.24895,-0.53165 -2.34404,-0.002 -2.34404,-0.002 -2.79383,0.6731 -2.793833,0.67311 -1.871759,0.93937 -1.871758,0.93937 -1.88705,1.42023 -1.88705,1.42024 -1.153851,1.39906 -1.153852,1.39906 -0.144612,0.13229 -0.144611,0.13229 -0.836899,1.32378 -0.8369,1.32377 -0.642337,1.45435 -0.642338,1.45435 -0.600131,2.11667 -0.600131,2.11667 -0.122502,3.175 -0.122502,3.175 0.547971,2.29837 0.547971,2.29837 0.667475,1.64267 0.667476,1.64267 0.862814,1.34787 0.862814,1.34788 1.277427,1.53733 1.277427,1.53734 1.901625,1.50812 1.901625,1.50813 1.255434,0.66146 1.255434,0.66145 0.166496,0.52917 0.166496,0.52917 1.70803,1.65364 1.70803,1.65365 h -0.427001 -0.427002 l -1.88622,-0.65901 -1.886221,-0.659 -2.011415,-1.09703 -2.011414,-1.09702 -1.589993,-1.28123 -1.589993,-1.28123 -1.389243,-1.57827 -1.389242,-1.57826 -1.011168,-1.53604 -1.011168,-1.53604 -0.467199,-0.92604 -0.467199,-0.92604 -0.756555,-2.14952 -0.756555,-2.14952 -0.444499,-2.6077 -0.444499,-2.6077 0.164858,-2.51882 0.164858,-2.51882 0.510506,-1.98438 0.510506,-1.98437 0.647238,-1.77565 0.647238,-1.77564 1.09211,-1.8075 1.092109,-1.80751 1.467274,-1.77884 1.467274,-1.77885 1.91786,-1.52405 1.91786,-1.52405 2.107769,-1.09246 2.107769,-1.09246 1.984375,-0.66249 1.984375,-0.66248 2.231908,-0.32632 2.2319,-0.32631 2.79518,0.17424 2.79518,0.17423 1.45521,0.36822 1.45521,0.36822 1.4552,0.51855 1.45521,0.51855 1.5875,0.85427 1.5875,0.85427 1.76249,1.33138 1.76249,1.33139 1.56525,1.75189 1.56525,1.7519 0.92396,1.32291 0.92396,1.32292 0.81146,1.723 0.81146,1.723 0.56635,1.83364 0.56636,1.83364 0.38869,2.39649 0.3887,2.39648 0.001,1.34244 0.001,1.34244 -0.42721,2.48704 -0.42722,2.48705 -0.64716,1.99135 -0.64717,1.99135 -1.05621,1.96435 -1.0562,1.96436 -1.28795,1.60752 -1.28795,1.60752 -1.27782,1.22589 -1.27781,1.22589 -1.5875,1.0642 -1.5875,1.0642 -1.23712,0.65507 -1.23711,0.65506 -1.97707,0.68275 -1.97707,0.68274 -1.68061,0.2727 -1.68061,0.27271 -1.71979,-0.0154 -1.71979,-0.0154 z m -2.34999,-8.1055 -0.58141,-0.2809 -0.436585,-0.92004 -0.436588,-0.92004 0.179966,-1.22855 0.179966,-1.22854 0.492421,-1.12448 0.49243,-1.12448 h 0.62596 0.62596 l 2.23319,-0.56163 2.23318,-0.56164 2.18282,-1.15708 2.18281,-1.15708 v 4.87872 4.87871 l -0.58804,0.41187 -0.58804,0.41188 -4.10831,-0.0179 -4.10832,-0.0179 z M 88.694289,144.18291 88.10625,143.77103 v -5.10336 -5.10337 l 0.483855,-0.43788 0.483854,-0.43788 h 5.072396 5.072396 v -5.10881 -5.1088 l 0.338494,-0.46292 0.338493,-0.46292 5.019322,0.0136 5.01932,0.0136 0.46302,0.56032 0.46302,0.56033 v 2.33422 2.33423 l -1.12448,0.91607 -1.12448,0.91608 -2.79582,1.44898 -2.79582,1.44899 -1.13697,0.71773 -1.13697,0.71774 -1.163422,1.0724 -1.163426,1.07241 -0.914564,1.50554 -0.914564,1.50553 -0.405368,1.55632 -0.405369,1.55631 v 0.98111 0.9811 l -0.160599,0.41851 -0.160599,0.41852 h -3.087821 -3.087821 z m 23.224461,0.24551 v -0.16637 l 0.89557,-0.99129 0.89556,-0.99128 0.67055,-1.15745 0.67054,-1.15745 0.53361,-1.85208 0.5336,-1.85209 0.17303,-1.81137 0.17302,-1.81138 2.31727,0.0916 2.31727,0.0916 0.43707,0.36313 0.43708,0.36312 v 5.11198 5.11197 l -0.58804,0.41188 -0.58804,0.41188 h -4.43904 -4.43905 z"
       id="path3" /><path
       style="fill:#000000"
       d="m 71.4375,183.48854 v -2.11667 h 1.039435 1.039434 l 0.436318,0.43632 0.436318,0.43632 -0.172001,0.55587 -0.172,0.55587 0.01475,0.26458 0.01475,0.26458 0.16674,0.8599 0.16674,0.8599 h -0.541623 -0.541622 l -0.08372,-0.7072 -0.08372,-0.7072 -0.330729,-0.1086 -0.33073,-0.1086 v 0.8158 0.8158 H 71.966667 71.4375 Z m 1.852083,-0.79375 v -0.52917 h -0.396875 -0.396875 v 0.52917 0.52917 h 0.396875 0.396875 z m 1.863629,2.44739 0.01154,-0.46302 0.330018,-1.5875 0.330018,-1.5875 h 0.894295 0.894294 l 0.334655,1.5875 0.334655,1.5875 0.01699,0.46302 0.01699,0.46303 H 77.7875 77.258334 v -0.39688 -0.39687 h -0.50086 -0.500859 l -0.152295,0.39687 -0.152295,0.39688 h -0.405179 -0.405179 z m 1.840538,-1.77032 v -0.64584 l -0.264583,-0.16352 -0.264583,-0.16352 v 0.80936 0.80937 h 0.264583 0.264583 z m 2.197225,0.11668 -0.003,-2.11667 h 1.438487 1.438487 l -0.108571,0.33073 -0.10857,0.33073 -0.83952,0.0829 -0.83952,0.0829 v 0.49483 0.49483 l 0.669684,0.0837 0.669684,0.0837 v 0.26458 0.26458 l -0.669684,0.0837 -0.669684,0.0837 v 0.77618 0.77618 h -0.487379 -0.487378 z m 3.888192,0 v -2.11667 h 0.396875 0.396875 v 2.11667 2.11667 h -0.396875 -0.396875 z m 1.852083,0 v -2.11667 h 0.529167 0.529167 l 0.01059,0.72761 0.01059,0.7276 0.394732,-0.7276 0.394732,-0.72761 h 0.520716 0.520717 v 0.15762 0.15761 l -0.454507,0.76942 -0.454507,0.76942 0.289669,0.72661 0.289669,0.72661 0.193145,0.46302 0.193146,0.46303 H 87.38881 86.879339 l -0.427957,-0.8599 -0.427956,-0.8599 -0.01692,0.8599 -0.01692,0.8599 H 85.460417 84.93125 Z m 4.079119,1.75807 -0.137606,-0.3586 0.07976,-1.68927 0.07976,-1.68926 0.463021,-0.0882 0.463021,-0.0882 v 2.13607 2.13607 h -0.405179 -0.405179 z m 2.006298,-0.0383 v -0.39687 h 0.529167 0.529167 v 0.39687 0.39688 h -0.529167 -0.529167 z m 4.550834,0.0794 -0.3175,-0.3175 v -0.34396 -0.34396 h 0.507118 0.507118 l 0.103809,0.31143 0.103809,0.31142 0.315115,-0.19475 0.315114,-0.19475 v -1.57188 -1.57189 h 0.396875 0.396875 v 1.79917 1.79917 l -0.3175,0.3175 -0.3175,0.3175 h -0.687917 -0.687916 z m 3.386666,-1.79917 v -2.11667 h 0.529167 0.529166 v 2.11667 2.11667 h -0.529166 -0.529167 z m 2.116663,0 v -2.11667 h 1.02594 1.02594 l 0.2697,0.33073 0.26971,0.33073 0.007,1.78594 0.007,1.78594 H 103.3 102.92292 v -0.63316 -0.63315 l -0.37101,-0.14237 -0.37101,-0.14236 -0.15816,0.15815 -0.15816,0.15816 v 0.61736 0.61737 h -0.39687 -0.39688 z m 1.7198,-0.79375 v -0.38963 l -0.46303,-0.0892 -0.46302,-0.0892 v 0.56797 0.56797 l 0.46302,-0.0892 0.46303,-0.0892 z m 1.99592,2.44739 0.0115,-0.46302 0.33002,-1.5875 0.33002,-1.5875 h 0.89429 0.8943 l 0.33465,1.5875 0.33466,1.5875 0.017,0.46302 0.017,0.46303 h -0.52917 -0.52916 v -0.39688 -0.39687 h -0.50086 -0.50086 l -0.1523,0.39687 -0.15229,0.39688 h -0.40518 -0.40518 z m 1.84053,-1.77032 v -0.64584 l -0.26458,-0.16352 -0.26458,-0.16352 v 0.80936 0.80937 h 0.26458 0.26458 z m 2.38125,0.11668 v -2.11667 h 0.77699 0.77699 l 0.10671,0.8599 0.10671,0.85989 0.0423,-0.85989 0.0423,-0.8599 h 0.52916 0.52917 v 2.11667 2.11667 h -0.77617 -0.77618 l -0.11022,-0.72761 -0.11023,-0.7276 -0.0396,0.7276 -0.0396,0.72761 h -0.52917 -0.52917 z m 3.96875,0 v -2.11667 h 0.52917 0.52917 v 2.11667 2.11667 h -0.52917 -0.52917 z m 2.11667,1.71979 v -0.43568 l 0.46302,0.0892 0.46302,0.0892 -0.0522,0.26096 -0.0522,0.26096 -0.41085,0.0855 -0.41085,0.0856 z m 4.23333,-1.71979 v -2.11667 h 0.76068 0.76068 l 0.16536,0.82683 0.16537,0.82682 0.004,0.69453 0.004,0.69453 0.25648,-0.39687 0.25648,-0.39688 0.004,-0.70596 0.004,-0.70597 0.1606,-0.41851 0.1606,-0.41852 h 0.76545 0.76544 v 2.11667 2.11667 h -0.52917 -0.52917 l -0.036,-1.25678 -0.036,-1.25677 -0.10418,0.66146 -0.10419,0.66146 -0.12941,0.59531 -0.1294,0.59532 H 121.30642 120.65 v -0.94166 -0.94166 l -0.25592,0.15817 -0.25591,0.15816 0.1567,0.78349 0.15669,0.7835 h -0.56224 -0.56224 z m 5.29167,0 v -2.11667 h 0.38479 0.38478 l 0.0782,1.78594 0.0782,1.78594 0.59532,0.0845 0.59531,0.0846 v 0.24618 0.24619 h -1.05834 -1.05833 z m 3.175,0 v -2.11667 h 0.52917 0.52916 v 2.11667 2.11667 h -0.52916 -0.52917 z m 2.11667,-0.0176 v -2.13424 l 0.7276,0.0837 0.72761,0.0837 0.1636,0.92605 0.16361,0.92604 0.0348,-0.99219 0.0348,-0.99219 h 0.52917 0.52916 v 2.11667 2.11667 h -0.7494 -0.74941 l -0.27249,-1.25678 -0.2725,-1.25677 -0.0364,1.25677 -0.0364,1.25678 h -0.39688 -0.39687 z m 3.96875,1.74656 v -0.38769 l 0.80522,-1.26596 0.80523,-1.26596 -0.80523,-0.0829 -0.80522,-0.0829 v -0.38011 -0.38011 h 1.45521 1.4552 v 0.24149 0.24149 l -0.92604,1.40612 -0.92604,1.40613 v 0.20447 0.20447 h 0.79375 0.79375 v 0.26458 0.26459 h -1.32292 -1.32291 z m 3.81174,0.0218 -0.14041,-0.36589 0.13135,-1.55234 0.13135,-1.55234 0.0174,-0.19844 0.0174,-0.19844 h 0.39687 0.39688 v 2.11667 2.11667 h -0.40518 -0.40518 z M 53.975,172.77291 v -4.10104 h 1.925503 1.925504 l 0.654184,0.44769 0.654184,0.44768 0.194386,0.27992 0.194386,0.27992 0.0041,2.82507 0.0041,2.82507 -0.69714,0.54837 -0.69714,0.54837 H 56.055985 53.975 Z m 3.650325,0.53006 0.07845,-2.11578 -0.149637,-0.5962 -0.149637,-0.5962 h -0.788709 -0.788709 v 2.79489 2.79489 l 0.859896,-0.0829 0.859896,-0.0829 z m 3.493425,3.34821 v -0.22277 l 0.79375,-3.74457 0.79375,-3.74456 v -0.1337 -0.13371 h 1.68975 1.68975 l 0.184369,1.25677 0.184369,1.25677 0.507658,2.24896 0.507659,2.24896 0.140951,0.61183 0.140951,0.61183 -1.001374,-0.0827 -1.001375,-0.0827 -0.08372,-0.7276 -0.08372,-0.7276 h -1.179665 -1.179666 l -0.15875,0.79375 -0.15875,0.79375 H 62.011719 61.11875 Z m 3.96875,-3.20378 v -0.51615 l -0.286899,-1.33776 -0.286899,-1.33776 -0.212274,0.13119 -0.212274,0.13119 -0.171334,0.99511 -0.171334,0.99511 -0.144266,0.7276 -0.144265,0.72761 h 0.814772 0.814773 z m 5.027083,3.18826 v -0.23829 l -0.529387,-3.13514 -0.529387,-3.13515 -0.153094,-0.7276 -0.153093,-0.72761 h 0.901005 0.901005 l 0.480614,2.71198 0.480615,2.71198 0.09249,-0.26458 0.09249,-0.26459 0.336934,-2.38125 0.336933,-2.38125 1.088386,-0.0798 1.088386,-0.0798 0.150943,0.87355 0.150943,0.87354 0.178563,1.32292 0.178563,1.32292 0.195989,0.36638 0.195989,0.36637 0.366407,-2.48304 0.366407,-2.48305 0.859896,-0.0829 0.859896,-0.0829 -0.0015,0.74436 -0.0015,0.74437 -0.236322,0.92604 -0.236322,0.92604 -0.342721,2.4474 -0.342721,2.4474 h -1.24175 -1.24175 l -0.33868,-2.65759 -0.33868,-2.65759 -0.193139,-0.11936 -0.19314,-0.11937 -0.312323,2.31393 -0.312324,2.31393 -0.129543,0.46302 -0.129543,0.46303 h -1.172795 -1.172796 z m 9.260417,0.0277 v -0.21059 l 0.79375,-3.81215 0.79375,-3.81214 v -0.0783 -0.0783 h 1.655013 1.655013 l 0.735615,3.70697 0.735615,3.70696 0.151221,0.39408 0.151222,0.39408 h -0.960964 -0.960964 l -0.15875,-0.79375 -0.15875,-0.79375 h -1.164167 -1.164166 l -0.15875,0.79375 -0.15875,0.79375 H 80.267969 79.375 Z m 3.96875,-3.21596 v -0.51615 l -0.286898,-1.33776 -0.286899,-1.33776 -0.207515,0.12825 -0.207514,0.12825 -0.179697,1.13034 -0.179696,1.13034 -0.148323,0.59532 -0.148324,0.59531 h 0.822433 0.822433 z m 9.205302,3.22812 -0.08635,-0.19844 0.09025,-3.9026 0.09025,-3.90261 h 1.417859 1.41786 l 0.131828,0.46302 0.131829,0.46302 0.321587,2.45571 0.321587,2.45571 0.18473,0.11416 0.184731,0.11417 0.321376,-2.30529 0.321377,-2.30529 0.137663,-0.7276 0.137663,-0.72761 h 1.566477 1.566477 v 4.10104 4.10105 h -0.926041 -0.926042 l -0.02386,-3.24115 -0.02386,-3.24115 -0.211583,0.79375 -0.211582,0.79375 -0.333931,2.46025 -0.333931,2.46025 -1.201718,-0.079 -1.201719,-0.079 -0.456245,-2.86674 -0.456245,-2.86675 -0.153911,-0.15391 -0.153911,-0.15392 v 3.08681 3.08681 h -0.778135 -0.778135 z m 9.844698,0.0873 v -0.11112 l 0.63379,-2.99773 0.63378,-2.99773 0.17196,-0.99219 0.17195,-0.99219 h 1.69581 1.69582 l 0.17195,0.99219 0.17195,0.99219 0.63379,2.99773 0.63378,2.99773 v 0.11112 0.11113 h -0.86803 -0.86804 l -0.2996,-0.79375 -0.29961,-0.79375 h -1.06029 -1.0603 l -0.17433,0.79375 -0.17434,0.79375 h -0.90502 -0.90502 z m 4.10032,-3.65919 -0.17505,-0.85989 -0.2678,-1.047 -0.2678,-1.04699 -0.2057,0.38553 -0.2057,0.38554 -0.18032,1.05833 -0.18033,1.05834 -0.13601,0.46302 -0.13602,0.46302 h 0.9649 0.96489 z m 4.81207,3.20335 -0.70803,-0.62366 -0.0673,-0.66146 -0.0673,-0.66146 0.81144,-0.0793 0.81143,-0.0793 0.30737,0.67461 0.30738,0.67461 h 0.63882 0.63882 l 0.15965,-0.41604 0.15965,-0.41605 -0.23939,-0.44385 -0.2394,-0.44385 -1.34572,-0.4734 -1.34573,-0.47339 -0.42172,-0.81552 -0.42172,-0.81552 0.16757,-0.89324 0.16758,-0.89324 0.76874,-0.39753 0.76875,-0.39754 h 0.92195 0.92196 l 0.69061,0.26257 0.69061,0.26257 0.3613,0.85929 0.3613,0.85929 -0.12426,0.20106 -0.12426,0.20106 h -0.78468 -0.78469 l -0.25148,-0.66146 -0.25149,-0.66146 h -0.5264 -0.52641 l -0.25543,0.47728 -0.25543,0.47727 0.17997,0.29072 0.17998,0.29072 1.49895,0.66274 1.49895,0.66275 0.28699,0.53624 0.28698,0.53624 v 0.78183 0.78184 l -0.48981,0.60489 -0.48981,0.60489 -1.57914,0.11423 -1.57914,0.11422 z m 6.69803,-3.53408 v -4.10104 h 0.92604 0.92604 v 1.71979 1.7198 h 1.05833 1.05834 v -1.7198 -1.71979 h 0.79375 0.79375 l 0.006,0.19844 0.006,0.19844 0.0603,3.83646 0.0603,3.83645 -0.84686,0.0819 -0.84686,0.0819 -0.0792,-1.66944 -0.0792,-1.66944 h -0.92605 -0.92604 l -0.0788,1.65365 -0.0788,1.65365 h -0.91342 -0.91341 z m 7.9375,0 v -4.10104 h 0.92604 0.92604 v 4.10104 4.10105 h -0.92604 -0.92604 z m 3.96875,0 v -4.10104 h 1.41466 1.41465 l 0.44859,2.7011 0.44859,2.70109 0.12113,0.12113 0.12113,0.12113 v -2.82223 -2.82222 l 0.85989,1.6e-4 0.8599,1.5e-4 v 4.11221 4.11221 l -1.45521,-0.0775 -1.45521,-0.0775 -0.39687,-2.51354 -0.39688,-2.51354 -0.0757,2.57969 -0.0757,2.57969 h -0.91646 -0.91646 z m 7.77287,3.69304 0.17044,-0.44416 0.7247,-3.6746 0.7247,-3.6746 1.65364,-3.6e-4 1.65365,-3.6e-4 v 0.12305 0.12304 l 0.79375,3.72266 0.79375,3.72266 v 0.25534 0.25534 h -0.89297 -0.89297 l -0.16183,-0.80914 -0.16182,-0.80914 -1.11748,0.0815 -1.11747,0.0815 -0.15328,0.66146 -0.15329,0.66145 -1.01698,0.0842 -1.01698,0.0842 z m 4.13338,-2.75397 v -0.25156 l -0.29284,-1.40209 -0.29283,-1.40208 -0.20894,-0.22396 -0.20893,-0.22396 -0.29198,1.36146 -0.29198,1.36146 v 0.51615 0.51614 h 0.79375 0.79375 z m 4.49792,-0.93907 v -4.10104 h 1.43645 1.43645 l 0.27149,1.38906 0.2715,1.38907 0.24809,1.19062 0.2481,1.19063 0.0283,-2.57969 0.0283,-2.57969 h 0.92604 0.92604 v 4.10104 4.10105 h -1.4313 -1.43131 l -0.31502,-1.91823 -0.31502,-1.91823 -0.21147,-0.92604 -0.21148,-0.92605 -0.0266,2.84427 -0.0266,2.84428 h -0.92604 -0.92604 z m 7.9375,0 v -4.10104 h 0.92604 0.92604 v 4.10104 4.10105 h -0.92604 -0.92604 z m -51.19688,-8.95737 -1.05833,-0.30647 -1.16998,-0.62219 -1.169971,-0.62218 -1.184915,-1.22819 -1.184914,-1.22818 -0.687821,-1.45521 -0.68782,-1.45521 v -3.07973 -3.07974 l 1.266129,-2.50034 1.26613,-2.50035 1.323824,-1.48529 1.323828,-1.4853 2.70171,-2.09161 2.70171,-2.09162 1.4182,-1.50745 1.41819,-1.50745 -0.15083,-0.15084 -0.15083,-0.15083 -1.26736,1.04602 -1.26737,1.04603 -2.77812,2.08433 -2.77813,2.08433 -1.106916,1.03078 -1.106918,1.03077 -0.73719,1.06377 -0.73719,1.06377 -0.229606,-0.88608 -0.229605,-0.88608 0.287352,-1.93202 0.287353,-1.93203 0.678434,-1.33882 0.678435,-1.33883 1.10187,-1.19539 1.101871,-1.19538 1.06439,-0.7265 1.06439,-0.7265 3.30309,-1.69226 3.30309,-1.69227 1.48973,-1.45521 1.48974,-1.45521 0.29556,-0.52917 0.29557,-0.52916 0.26199,0.39687 0.26199,0.39688 0.5726,1.85208 0.57261,1.85208 0.0111,2.64584 0.0111,2.64583 -0.46483,1.5875 -0.46483,1.5875 -0.68274,1.19063 -0.68273,1.19062 -0.62905,0.75941 -0.62905,0.75941 -1.24709,1.04414 -1.24709,1.04414 -1.66021,0.76252 -1.66021,0.76252 -1.55148,0.39748 -1.55148,0.39747 -1.33342,0.17688 -1.333419,0.17688 -0.68041,1.83565 -0.68041,1.83565 v 1.54198 1.54198 l 0.441357,1.36658 0.441358,1.36659 1.005654,1.14248 1.00566,1.14249 1.52955,0.73488 1.52955,0.73489 2.11666,-0.0252 2.11667,-0.0252 1.98437,-0.51033 1.98438,-0.51032 1.40639,-0.56437 1.40639,-0.56436 1.56342,-1.03845 1.56341,-1.03845 1.1167,-1.0091 1.11669,-1.0091 0.64355,-0.66146 0.64355,-0.66146 0.9946,-1.33711 0.9946,-1.3371 0.86155,-1.7056 0.86155,-1.70561 0.63153,-1.85208 0.63153,-1.85208 0.25478,-2.4474 0.25478,-2.44739 -0.25686,-2.4474 -0.25685,-2.4474 -0.69033,-2.11666 -0.69033,-2.11667 -1.02547,-1.85208 -1.02546,-1.85209 -1.19749,-1.51273 -1.19748,-1.51274 -1.92113,-1.59147 -1.92112,-1.59148 -2.38125,-1.18629 -2.38125,-1.18629 -2.24896,-0.58051 -2.24896,-0.58051 -2.91041,0.0144 -2.91042,0.0144 -2.307534,0.55042 -2.307533,0.55042 -2.190384,1.09854 -2.190383,1.09854 -1.639463,1.30097 -1.639463,1.30096 -1.238798,1.37756 -1.238798,1.37757 -0.951803,1.45521 -0.951802,1.45521 -0.715072,1.63546 -0.715072,1.63546 -0.599926,2.06871 -0.599927,2.0687 -0.0032,3.57188 -0.0032,3.57187 0.47514,1.71979 0.475139,1.71979 0.760699,1.79059 0.760699,1.79059 1.174759,1.78129 1.174759,1.78128 1.164742,1.19063 1.164741,1.19062 1.162425,0.97806 1.162426,0.97805 1.683371,0.98447 1.683371,0.98447 0.355531,0.68331 0.355532,0.68331 1.018331,1.05833 1.01833,1.05834 0.660547,0.4341 0.660547,0.43409 -0.181726,0.1886 -0.181726,0.1886 -2.523385,-0.84066 -2.523384,-0.84067 -2.256174,-1.36953 -2.256175,-1.36953 -1.591308,-1.40832 -1.591308,-1.40832 -1.423099,-1.76668 -1.423099,-1.76668 -0.962181,-1.75666 -0.962182,-1.75665 -0.666542,-1.68293 -0.666543,-1.68293 -0.515897,-2.47652 -0.515896,-2.47652 2.16e-4,-2.55056 2.17e-4,-2.55057 0.409023,-1.98437 0.409024,-1.98438 0.660227,-1.98148 0.660227,-1.98148 1.046804,-1.9407 1.046805,-1.94071 1.168539,-1.5186 1.168539,-1.51861 1.676127,-1.55228 1.676127,-1.55228 1.719792,-1.10865 1.719791,-1.10865 1.322917,-0.65944 1.322917,-0.65943 1.852083,-0.55767 1.852083,-0.55767 1.719788,-0.27032 1.7198,-0.27032 2.41273,-0.002 2.41274,-0.002 2.21747,0.39166 2.21747,0.39165 1.41094,0.54162 1.41093,0.54162 1.63178,0.82026 1.63177,0.82025 1.33333,0.88104 1.33333,0.88104 1.77251,1.7972 1.77252,1.7972 1.19652,1.5875 1.19652,1.5875 0.95267,1.98438 0.95268,1.98437 0.5098,1.5875 0.5098,1.5875 0.41378,2.51355 0.41377,2.51354 -0.14483,2.64583 -0.14484,2.64583 -0.40234,1.85209 -0.40235,1.85208 -0.5514,1.45521 -0.55141,1.45521 -0.94275,1.85208 -0.94275,1.85208 -0.5565,0.79375 -0.55651,0.79375 -1.06723,1.18253 -1.06724,1.18252 -1.28471,1.21634 -1.2847,1.21633 -2.06933,1.26015 -2.06932,1.26015 -1.93763,0.79363 -1.93764,0.79363 -1.9415,0.37601 -1.94151,0.37601 -2.29183,-0.026 -2.29183,-0.026 z m 6.48229,-28.87804 v -0.13229 h -0.13229 -0.13229 v 0.13229 0.13229 h 0.13229 0.13229 z m -9.17952,20.39582 -0.742354,-0.63855 2.4e-5,-1.67655 2.5e-5,-1.67656 0.479085,-1.20476 0.47908,-1.20477 2.16672,-0.41139 2.16673,-0.41139 1.85209,-0.73949 1.85208,-0.73949 0.92131,-0.62092 0.92132,-0.62091 h 0.20316 0.20317 v 4.87589 4.87589 l -0.41578,0.41578 -0.41577,0.41577 h -4.46426 -4.46427 z M 88.569271,144.30901 88.10625,144.03933 v -5.3952 -5.39519 l 0.33073,-0.21406 0.330729,-0.21405 5.159375,-0.13229 5.159375,-0.13229 0.07173,-5.22308 0.07173,-5.22308 0.635271,-0.41625 0.635268,-0.41625 4.80494,0.0831 4.80493,0.0831 0.37505,0.51359 0.37504,0.51359 v 2.58255 2.58255 l -1.25677,0.87261 -1.25677,0.87261 -0.52917,0.301 -0.52917,0.301 -1.98437,0.99316 -1.98438,0.99316 -1.32291,0.84826 -1.32292,0.84825 -1.058334,1.04234 -1.058334,1.04235 -0.7402,1.08097 -0.740201,1.08097 -0.521219,1.37174 -0.521218,1.37173 -0.166467,1.96931 -0.166468,1.9693 -3.334613,-0.008 -3.334614,-0.008 z m 23.349479,0.12406 v -0.16172 l 1.00421,-1.22734 1.00421,-1.22735 0.41182,-0.66145 0.41181,-0.66146 0.58589,-1.65453 0.58589,-1.65452 0.1809,-2.18193 0.1809,-2.18194 h 2.63802 2.63802 l 0.34333,0.66146 0.34334,0.66146 -0.0709,4.85047 -0.0709,4.85046 -0.51359,0.37506 -0.51359,0.37505 h -4.57964 -4.57964 z"
       id="path2" /></g></svg>
