<?xml version="1.0" encoding="UTF-8" standalone="no"?>
<!-- Created with Inkscape (http://www.inkscape.org/) -->

<svg
   width="210mm"
   height="297mm"
   viewBox="0 0 210 297"
   version="1.1"
   id="svg1"
   xml:space="preserve"
   sodipodi:docname="Dawa-Mashinani-black.svg"
   inkscape:version="1.4.3 (0d15f75042, 2025-12-25)"
   xmlns:inkscape="http://www.inkscape.org/namespaces/inkscape"
   xmlns:sodipodi="http://sodipodi.sourceforge.net/DTD/sodipodi-0.dtd"
   xmlns="http://www.w3.org/2000/svg"
   xmlns:svg="http://www.w3.org/2000/svg"><sodipodi:namedview
     id="namedview1"
     pagecolor="#ffffff"
     bordercolor="#000000"
     borderopacity="0.25"
     inkscape:showpageshadow="2"
     inkscape:pageopacity="0.0"
     inkscape:pagecheckerboard="true"
     inkscape:deskcolor="#d1d1d1"
     inkscape:document-units="mm"
     inkscape:zoom="0.41068322"
     inkscape:cx="396.89958"
     inkscape:cy="627.00395"
     inkscape:window-width="1366"
     inkscape:window-height="672"
     inkscape:window-x="0"
     inkscape:window-y="0"
     inkscape:window-maximized="1"
     inkscape:current-layer="layer1" /><defs
     id="defs1" /><g
     inkscape:label="Layer 1"
     inkscape:groupmode="layer"
     id="layer1"><path
       style="fill:#000000"
       d="m 105.17187,200.28474 c -7.197716,-0.78624 -13.357657,-4.74512 -16.515915,-10.61447 -1.799189,-3.34364 -2.273253,-5.51358 -2.246463,-10.28277 0.02054,-3.65737 0.100599,-4.35866 0.739975,-6.48229 2.207696,-7.33269 6.625337,-13.26426 14.450533,-19.40276 7.14022,-5.60117 9.32509,-7.61278 11.55472,-10.63841 1.13174,-1.53579 2.583,-4.19576 2.3929,-4.38586 -0.061,-0.061 -0.55096,0.45687 -1.08884,1.15078 -1.39196,1.79575 -5.56809,5.3329 -10.26182,8.6917 -7.620686,5.4533 -11.220478,8.72883 -14.17006,12.89363 -1.089412,1.53825 -1.089412,1.53825 -1.277621,0.28318 -0.283925,-1.89335 0.05743,-6.32028 0.669802,-8.68631 1.096753,-4.23758 3.805533,-8.6717 6.840399,-11.19734 2.405711,-2.00206 4.85636,-3.52049 9.70614,-6.01398 5.33648,-2.74373 7.03541,-3.67649 8.49916,-4.66631 0.59996,-0.4057 1.1655,-0.68281 1.25677,-0.61579 0.0913,0.067 0.11045,0.0465 0.0426,-0.0456 -0.14997,-0.2036 1.22089,-1.3147 1.50725,-1.22165 0.11196,0.0364 0.17574,-0.0232 0.14172,-0.13229 -0.086,-0.27579 1.31848,-1.63174 1.50102,-1.44919 0.0816,0.0816 0.14833,-0.0317 0.14833,-0.25164 0,-0.21998 0.26789,-0.62678 0.59531,-0.90399 0.59531,-0.50403 0.59531,-0.50403 0.0662,0.15743 -0.52917,0.66145 -0.52917,0.66145 0.0755,0.14898 0.33256,-0.28186 0.54612,-0.665 0.47458,-0.85142 -0.0715,-0.18642 0.002,-0.42069 0.16384,-0.5206 0.19528,-0.12069 0.21875,-0.0569 0.07,0.18997 -0.19093,0.31679 -0.15608,0.31651 0.23623,-0.002 0.25689,-0.20852 0.34766,-0.44307 0.20546,-0.53095 -0.15293,-0.0945 -0.0978,-0.42104 0.13805,-0.8171 0.21602,-0.36283 0.32768,-0.44857 0.24815,-0.19054 -0.12236,0.39694 -0.0637,0.42584 0.3811,0.18779 0.4467,-0.23907 0.5651,-0.17775 0.78779,0.40798 0.33594,0.88358 0.32974,0.9925 -0.0434,0.76191 -0.19077,-0.11791 -0.23358,-0.0725 -0.11401,0.12099 0.1053,0.17038 0.28289,0.25327 0.39464,0.18421 0.2468,-0.15254 1.21403,2.95694 1.76469,5.67319 1.25084,6.17011 0.4585,13.70906 -1.99155,18.94914 -2.54117,5.43498 -6.78876,9.73534 -12.38005,12.53387 -3.83273,1.91834 -9.11721,3.39077 -13.866371,3.86363 -1.759573,0.17519 -1.759573,0.17519 -2.433529,1.55159 -2.384397,4.86957 -3.03393,8.9428 -2.160377,13.54776 1.473482,7.76751 8.799827,13.24645 16.936817,12.66606 10.94432,-0.78064 20.1185,-4.89364 27.98756,-12.54748 3.63731,-3.53784 7.02021,-8.00324 8.68137,-11.45934 0.32879,-0.68404 0.71438,-1.17166 0.85687,-1.0836 0.14735,0.0911 0.17458,0.0234 0.0631,-0.15693 -0.10777,-0.17438 -0.0834,-0.46067 0.0542,-0.63619 0.1376,-0.17553 0.46168,-0.88469 0.72018,-1.57591 0.25851,-0.69123 0.55305,-1.25677 0.65455,-1.25677 0.1015,0 0.18927,-0.14883 0.19505,-0.33073 0.006,-0.1819 0.38804,-1.58089 0.84945,-3.10886 1.10738,-3.66707 1.3032,-4.58197 1.75386,-8.19427 0.77161,-6.18503 0.29189,-12.37996 -1.39382,-17.99947 -0.37105,-1.23693 -0.6882,-2.51685 -0.70478,-2.84428 -0.0166,-0.32742 -0.13219,-0.59531 -0.2569,-0.59531 -0.12471,0 -0.14818,-0.20473 -0.0522,-0.45495 0.096,-0.25023 0.0867,-0.36704 -0.0208,-0.25959 -0.25721,0.25722 -1.46039,-2.71037 -1.24209,-3.06358 0.0926,-0.14981 0.0476,-0.19779 -0.0999,-0.10661 -0.14753,0.0912 -0.44326,-0.27738 -0.65717,-0.81902 -0.21391,-0.54163 -1.08973,-2.11588 -1.94625,-3.49833 -0.85653,-1.38245 -1.53798,-2.53744 -1.51434,-2.56665 0.0236,-0.0292 -0.30747,-0.42827 -0.7358,-0.8868 -0.42833,-0.45852 -0.71776,-0.93241 -0.64319,-1.05308 0.0746,-0.12068 -0.004,-0.30556 -0.17418,-0.41086 -0.20726,-0.1281 -0.24286,-0.0685 -0.10757,0.18015 0.11122,0.20439 -0.0972,0.0145 -0.4631,-0.422 -0.36592,-0.4365 -0.59872,-0.90138 -0.51732,-1.03307 0.0814,-0.1317 0.0295,-0.1662 -0.1154,-0.0767 -0.27992,0.173 -1.57804,-1.38515 -1.46157,-1.75433 0.0378,-0.11996 -0.0373,-0.15253 -0.16697,-0.0724 -0.27829,0.17199 -1.16235,-0.72961 -0.96854,-0.98775 0.0731,-0.0973 0.0593,-0.12327 -0.0306,-0.0576 -0.0899,0.0656 -1.13168,-0.69395 -2.3151,-1.68796 -2.70188,-2.26943 -5.91806,-4.57855 -7.00304,-5.02796 -0.48772,-0.20202 -0.75974,-0.46781 -0.65911,-0.64401 0.0942,-0.16501 0.0844,-0.22223 -0.0219,-0.12715 -0.10628,0.0951 -1.29811,-0.3505 -2.64851,-0.99019 -5.69697,-2.69868 -11.39181,-4.06903 -17.74829,-4.27078 -12.918218,-0.41 -24.89018,4.41103 -33.741399,13.58743 -5.358795,5.55567 -8.428503,10.58536 -10.799197,17.69442 -2.724692,8.17059 -3.22697,16.71335 -1.454521,24.73854 2.833261,12.82826 10.901441,23.71947 22.481752,30.34804 2.60482,1.491 2.726475,1.6032 4.315315,3.98007 1.663731,2.4889 3.272134,4.08047 5.982836,5.92023 0.831974,0.56466 1.399972,1.02666 1.262217,1.02666 -0.137755,0 -1.195622,-0.24618 -2.350816,-0.54707 -14.381849,-3.74594 -26.61273,-13.64839 -33.328095,-26.98332 -1.109762,-2.20369 -3.02258,-7.05497 -3.645895,-9.2467 -1.499294,-5.27187 -2.20287,-12.5064 -1.762601,-18.12395 1.913034,-24.40909 19.203384,-43.56883 43.250823,-47.926998 3.688711,-0.668513 12.935771,-0.666923 16.536461,0.0028 4.92982,0.917 9.2532,2.290172 13.41772,4.261674 4.0675,1.92557 10.31924,5.96858 10.008,6.47219 -0.0751,0.12153 0.0705,0.38327 0.32355,0.58166 0.41636,0.32642 0.42558,0.31669 0.097,-0.10231 -0.52515,-0.66962 0.0546,-0.5705 0.65285,0.11163 0.315,0.35914 0.35519,0.48893 0.10715,0.34608 -0.34219,-0.19707 -0.34684,-0.16688 -0.0337,0.21911 0.39312,0.48464 0.69679,0.61375 0.43062,0.18308 -0.0899,-0.14552 -0.0582,-0.26459 0.0706,-0.26459 0.30302,0 1.34778,1.11085 1.36863,1.45521 0.009,0.14552 0.16485,0.27 0.34675,0.27661 0.1819,0.007 0.29802,0.16429 0.25803,0.3504 -0.04,0.1861 0.0358,0.2713 0.16846,0.18932 0.31874,-0.19699 0.88183,0.49331 0.62955,0.77179 -0.10788,0.11908 -0.0594,0.13835 0.10768,0.0428 0.3361,-0.19215 3.59421,3.47933 3.38623,3.81586 -0.0697,0.11285 0.0126,0.29133 0.18297,0.39663 0.20927,0.12934 0.241,0.0709 0.0978,-0.18015 -0.23943,-0.41973 -0.0599,-0.23719 0.92794,0.9433 0.36163,0.43216 0.47328,0.67028 0.24813,0.52916 -0.22515,-0.14111 -0.10609,0.0244 0.26458,0.36778 0.37068,0.34339 0.49536,0.54142 0.27708,0.44006 -0.21828,-0.10136 -0.0992,0.0615 0.26458,0.36195 0.36381,0.30044 0.54941,0.54889 0.41245,0.55213 -0.13695,0.003 -0.0179,0.19331 0.26459,0.42238 0.28247,0.22907 0.36612,0.34195 0.18589,0.25084 -0.59983,-0.30322 -0.0537,0.60486 0.63525,1.05628 0.39924,0.26159 0.60072,0.58688 0.50998,0.82336 -0.0825,0.21501 -0.0511,0.32981 0.0697,0.25511 0.21667,-0.13391 1.49398,2.10772 1.49398,2.62187 0,0.14552 0.2158,0.48038 0.47956,0.74414 0.26375,0.26376 0.43278,0.61988 0.37561,0.79139 -0.0572,0.17151 0.0613,0.47707 0.26326,0.67904 0.20197,0.20196 0.30219,0.53663 0.22273,0.7437 -0.0916,0.23865 -0.0322,0.30715 0.16204,0.18707 0.20656,-0.12766 0.2497,-0.0414 0.13229,0.26458 -0.0958,0.24971 -0.0705,0.38989 0.0564,0.31151 0.23378,-0.14449 1.76437,4.20074 2.51908,7.15147 1.39599,5.45802 1.98617,12.27863 1.52351,17.60689 -1.93839,22.32354 -17.01882,40.56209 -38.03774,46.00357 -4.48362,1.16074 -9.78442,1.68858 -13.20505,1.31492 z m -7.937497,-17.06135 c -1.368658,-0.48394 -2.66448,-1.90452 -3.057281,-3.35161 -0.539504,-1.98755 0.05514,-5.88332 1.397762,-9.1574 0.618771,-1.50891 0.616661,-1.50775 3.247019,-1.78533 5.596247,-0.59059 13.051167,-3.39299 16.956947,-6.37433 1.18524,-0.90472 1.18524,-0.90472 1.10998,9.17523 -0.0976,13.07118 0.92454,11.89506 -10.32398,11.87927 -6.43141,-0.009 -8.507613,-0.0949 -9.330447,-0.38583 z M 72.256752,160.00287 c -0.349774,-0.17975 -0.885555,-0.6628 -1.190625,-1.07344 -0.53586,-0.72129 -0.557075,-1.07126 -0.625516,-10.31875 -0.09839,-13.29426 -0.783376,-12.34704 8.934386,-12.35468 3.710781,-0.003 8.324453,-0.08 10.252605,-0.17122 3.505729,-0.16591 3.505729,-0.16591 3.505729,-10.0578 0,-10.54211 0.04914,-10.99555 1.313866,-12.12385 0.566621,-0.5055 1.020892,-0.53234 10.156833,-0.60001 12.88416,-0.0954 12.15853,-0.52324 12.29166,7.24661 0.0821,4.79452 0.0821,4.79452 -1.32292,5.97662 -2.30865,1.9423 -3.77372,2.82878 -9.73889,5.89277 -6.793199,3.4893 -8.871277,4.84063 -11.967573,7.7823 -4.776694,4.53813 -7.249741,9.73698 -7.879451,16.56421 -0.134221,1.4552 -0.248048,2.85419 -0.252949,3.10885 -0.0082,0.42811 -0.492707,0.46273 -6.425056,0.45912 -4.565643,-0.003 -6.599563,-0.0982 -7.052099,-0.33073 z m 48.091418,-1.49536 c 4.97099,-5.77569 7.04236,-11.06803 7.5941,-19.40282 0.18828,-2.84427 0.18828,-2.84427 4.9458,-2.84427 4.75752,0 4.75752,0 5.78472,1.0272 1.02721,1.02721 1.02721,1.02721 1.02721,10.86106 0,8.40903 -0.06,9.94997 -0.41445,10.6353 -0.76647,1.48219 -1.28824,1.55352 -11.3634,1.55352 -9.14901,0 -9.14901,0 -7.57398,-1.82999 z"
       id="path13" /></g></svg>
